;TYPE=PLATED
;Layer: PTH_Through_Via
;EasyEDA Pro v2.2.47.7, 2026-04-28 21:33:04
;Gerber Generator version 0.3
M48
METRIC,LZ,0000.00000
;Hole size 1 = 0.30500 METRIC
T01C0.30500
%
G05
G90
T01
X-3.94428Y35.95178
X-3.53978Y36.98034
X-13.7Y36.0
X-13.17368Y37.02632
X14.6Y35.1
X14.5Y38.5
X-0.2Y38.5
X0.2938Y35.08409
X-2.075Y36.3386
X-9.77506Y37.2
X-11.7Y36.3
X-5.22491Y37.1
X-14.82491Y37.1
X2.52688Y-46.55058
X-1.905Y-39.5693
X4.445Y-42.3
X-19.37506Y37.1
X-47.625Y10.795
X8.255Y-10.4775
X10.0Y-23.97
X-25.4Y-8.89
X-26.67Y-11.43
X-27.94Y-13.97
X-29.21Y-16.51
X-30.48Y-19.05
X-31.75Y-21.59
X-33.02Y-24.13
X-34.29Y-26.67
X-46.77029Y-17.77309
X-47.625Y5.3975
M30