;TYPE=PLATED
;Layer: PTH_Through
;EasyEDA Pro v2.2.47.7, 2026-04-28 21:33:04
;Gerber Generator version 0.3
M48
METRIC,LZ,0000.00000
;Hole size 1 = 0.30500 METRIC
T01C0.30500
;Hole size 2 = 0.80000 METRIC
T02C0.80000
;Hole size 3 = 0.90002 METRIC
T03C0.90002
;Hole size 4 = 0.91440 METRIC
T04C0.91440
;Hole size 5 = 1.00000 METRIC
T05C1.00000
;Hole size 6 = 1.00000 METRIC
T06C1.00000
;Hole size 7 = 1.10002 METRIC
T07C1.10002
;Hole size 8 = 1.18999 METRIC
T08C1.18999
;Hole size 9 = 1.20000 METRIC
T09C1.20000
;Hole size 10 = 2.10002 METRIC
T10C2.10002
;Hole size 11 = 3.20040 METRIC
T11C3.20040
;Hole size 12 = 3.25003 METRIC
T12C3.25003
%
G05
G90
T01
X-3.94428Y35.95178
X-3.53978Y36.98034
X-13.7Y36.0
X-13.17368Y37.02632
X14.6Y35.1
X14.5Y38.5
X-0.2Y38.5
X0.2938Y35.08409
X-2.075Y36.3386
X-9.77506Y37.2
X-11.7Y36.3
X-5.22491Y37.1
X-14.82491Y37.1
X2.52688Y-46.55058
X-1.905Y-39.5693
X4.445Y-42.3
X-19.37506Y37.1
X-47.625Y10.795
X8.255Y-10.4775
X10.0Y-23.97
X-25.4Y-8.89
X-26.67Y-11.43
X-27.94Y-13.97
X-29.21Y-16.51
X-30.48Y-19.05
X-31.75Y-21.59
X-33.02Y-24.13
X-34.29Y-26.67
X-46.77029Y-17.77309
X-47.625Y5.3975
T02
X-47.352Y21.93011G85X-48.152Y21.93011
X-47.352Y13.6301G85X-48.152Y13.6301
T03
X-47.752Y15.78
X-47.752Y17.78
X-47.752Y19.78
X-4.50001Y41.94481
X-6.99977Y41.94496
X-9.00015Y41.94496
X-11.50002Y41.94483
T04
X-36.15Y33.0
X-33.61Y33.0
X-31.07Y33.0
X-28.53Y33.0
X-25.99Y33.0
X-23.45Y33.0
X34.3Y-15.25
X34.3Y-17.79
X34.3Y-20.33
X34.3Y-22.87
X34.3Y-25.41
X34.3Y-27.95
X40.64Y27.94
X40.64Y25.4
X38.1Y27.94
X38.1Y25.4
X35.56Y27.94
X35.56Y25.4
X33.02Y27.94
X33.02Y25.4
X30.48Y27.94
X30.48Y25.4
X27.94Y27.94
X27.94Y25.4
X25.4Y27.94
X25.4Y25.4
X22.86Y27.94
X22.86Y25.4
X20.32Y27.94
X20.32Y25.4
X17.78Y27.94
X17.78Y25.4
X15.24Y27.94
X15.24Y25.4
X12.7Y27.94
X12.7Y25.4
X10.16Y27.94
X10.16Y25.4
X7.62Y27.94
X7.62Y25.4
X5.08Y27.94
X5.08Y25.4
X2.54Y27.94
X2.54Y25.4
X0.0Y27.94
X0.0Y25.4
X-2.54Y27.94
X-2.54Y25.4
X-5.08Y27.94
X-5.08Y25.4
X-7.62Y27.94
X-7.62Y25.4
X-10.16Y27.94
X-10.16Y25.4
X-12.7Y27.94
X-12.7Y25.4
X-15.24Y27.94
X-15.24Y25.4
X-17.78Y27.94
X-17.78Y25.4
X-20.32Y27.94
X-20.32Y25.4
X-22.86Y27.94
X-22.86Y25.4
X-25.4Y27.94
X-25.4Y25.4
X-27.94Y27.94
X-27.94Y25.4
X-30.48Y27.94
X-30.48Y25.4
X-33.02Y27.94
X-33.02Y25.4
X-35.56Y27.94
X-35.56Y25.4
X-38.1Y27.94
X-38.1Y25.4
X40.64Y-33.02
X40.64Y-35.56
X38.1Y-33.02
X38.1Y-35.56
X35.56Y-33.02
X35.56Y-35.56
X33.02Y-33.02
X33.02Y-35.56
X30.48Y-33.02
X30.48Y-35.56
X27.94Y-33.02
X27.94Y-35.56
X25.4Y-33.02
X25.4Y-35.56
X22.86Y-33.02
X22.86Y-35.56
X20.32Y-33.02
X20.32Y-35.56
X17.78Y-33.02
X17.78Y-35.56
X15.24Y-33.02
X15.24Y-35.56
X12.7Y-33.02
X12.7Y-35.56
X10.16Y-33.02
X10.16Y-35.56
X7.62Y-33.02
X7.62Y-35.56
X5.08Y-33.02
X5.08Y-35.56
X2.54Y-33.02
X2.54Y-35.56
X0.0Y-33.02
X0.0Y-35.56
X-2.54Y-33.02
X-2.54Y-35.56
X-5.08Y-33.02
X-5.08Y-35.56
X-7.62Y-33.02
X-7.62Y-35.56
X-10.16Y-33.02
X-10.16Y-35.56
X-12.7Y-33.02
X-12.7Y-35.56
X-15.24Y-33.02
X-15.24Y-35.56
X-17.78Y-33.02
X-17.78Y-35.56
X-20.32Y-33.02
X-20.32Y-35.56
X-22.86Y-33.02
X-22.86Y-35.56
X-25.4Y-33.02
X-25.4Y-35.56
X-27.94Y-33.02
X-27.94Y-35.56
X-30.48Y-33.02
X-30.48Y-35.56
X-33.02Y-33.02
X-33.02Y-35.56
X-35.56Y-33.02
X-35.56Y-35.56
X-38.1Y-33.02
X-38.1Y-35.56
T05
X9.49Y45.82752G85X8.49Y45.82752
X7.49Y36.22751G85X6.49Y36.22751
X9.49Y40.3275G85X8.49Y40.3275
X7.49Y42.1275G85X6.49Y42.1275
X7.49Y48.22751G85X6.49Y48.22751
X45.09497Y45.0G85X42.89497Y45.0
X20.10503Y45.0G85X17.90503Y45.0
T06
X48.925Y-15.3G85X47.425Y-15.3
X48.925Y-27.9G85X47.425Y-27.9
T07
X-29.15506Y-41.91999
X-26.38494Y-41.91999
X-23.61507Y-41.91999
X-20.84494Y-41.91999
X-30.54012Y-39.08001
X-27.77Y-39.08001
X-22.23Y-39.08001
X-19.46013Y-39.08001
X-25.00013Y-39.08001
X20.84494Y-41.91999
X23.61507Y-41.91999
X26.38494Y-41.91999
X29.15506Y-41.91999
X19.45988Y-39.08001
X22.23Y-39.08001
X27.77Y-39.08001
X30.53987Y-39.08001
X24.99987Y-39.08001
X-48.19688Y42.40188G85X-48.19688Y40.40191
X-42.49702Y44.4021G85X-44.49696Y44.4021
X-42.49702Y38.40211G85X-44.49696Y38.40211
T08
X26.66996Y43.0
X28.95995Y43.0
X31.24999Y43.0
X33.54Y43.0
X35.82999Y43.0
X25.52496Y45.0
X27.81494Y45.0
X30.10496Y45.0
X32.39499Y45.0
X34.68498Y45.0
X26.66994Y46.99999
X28.95995Y46.99999
X31.24999Y46.99999
X33.53998Y46.99999
X35.82999Y46.99999
T09
X-37.07Y-6.849
X-37.07Y2.422
X-21.83Y-6.849
X-21.83Y2.422
X-37.12Y8.801
X-37.12Y18.072
X-21.88Y8.801
X-21.88Y18.072
X43.46999Y14.52999
X43.46999Y21.03001
X47.97001Y14.52999
X47.97001Y21.03001
X43.46999Y5.63999
X43.46999Y12.14001
X47.97001Y5.63999
X47.97001Y12.14001
X43.46999Y-3.25001
X43.46999Y3.25001
X47.97001Y-3.25001
X47.97001Y3.25001
X43.46999Y-12.14001
X43.46999Y-5.63999
X47.97001Y-12.14001
X47.97001Y-5.63999
T10
X-15.00004Y44.65506
X-1.00006Y44.65522
T11
X-46.0Y27.5
X-46.0Y-33.5
X46.0Y27.5
X45.9365Y-33.5
T12
X-12.50003Y-40.49987
X-37.49998Y-40.49987
X37.49998Y-40.49987
X12.50003Y-40.49987
M30