G04 Layer: DrillDrawingLayer*
G04 EasyEDA Pro v2.2.47.7, 2026-04-28 21:33:04*
G04 Gerber Generator version 0.3*
G04 Scale: 100 percent, Rotated: No, Reflected: No*
G04 Dimensions in millimeters*
G04 Leading zeros omitted, absolute positions, 4 integers and 5 decimals*
G04 Generated by one-click*
G04 Object Configs: Pad,Via,Track,Text,Image,Dimension,BoardOutline,BoardCutout,CopperFilled,SolidRegion,FPCStiffener,Line,PlaneZone,ComponentProperty,ComponentSilkscreen,TearDrop*
G04 Layer Configs: 1,2,3,4,5,6,7,8,9,10,11,13,14,56*
G04 Copper Areas: 0*
%FSLAX45Y45*%
%MOMM*%
%AMIconRect*4,1,4,0.28,-0.28,-0.28,-0.28,-0.28,0.28,0.28,0.28,0.28,-0.28,0*4,0,4,0.233333,-0.233333,0.233333,0.233333,-0.233333,0.233333,-0.233333,-0.233333,0.233333,-0.233333,0*%
%AMIconTriangle*4,1,3,-0.339593,0.240473,0.339593,0.240473,0,-0.37884,-0.339593,0.240473,0*4,0,3,-0.265673,0.19404,0,-0.27342,0.266233,0.19404,-0.265673,0.19404,0*%
%AMIconStar6*4,1,12,0.12068,0.20888,0.298527,0.172713,0.241313,0,0.298527,-0.17206,0.12068,-0.208227,0,-0.344073,-0.120073,-0.208227,-0.298573,-0.17206,-0.240707,0,-0.298573,0.17206,-0.120073,0.20888,0,0.344073,0.12068,0.20888,0*4,0,12,-0.000467,0.273467,-0.090067,0.171733,-0.237533,0.136733,-0.193667,-0.007467,-0.237533,-0.1372,-0.090067,-0.171733,-0.000467,-0.273933,0.090067,-0.171733,0.237533,-0.1372,0.194133,0.007,0.237533,0.1372,0.090067,0.171267,-0.000467,0.273467,0*%
%AMIconStar4*4,1,8,-0.311733,0.311733,0,0.202533,0.311733,0.311733,0.202533,0,0.311733,-0.311733,0,-0.202533,-0.304407,-0.311733,-0.202533,0,-0.311733,0.311733,0*4,0,8,0.233333,-0.233333,0.1512,0,0.233333,0.233333,0,0.1512,-0.233333,0.233333,-0.1512,0,-0.233333,-0.233333,0,-0.1512,0.233333,-0.233333,0*%
%AMIconPlus*4,1,12,0.1736,-0.28,-0.1736,-0.28,-0.1736,-0.1736,-0.28,-0.1736,-0.28,0.1736,-0.1736,0.1736,-0.1736,0.28,0.1736,0.28,0.1736,0.1736,0.28,0.1736,0.28,-0.1736,0.1736,-0.1736,0.1736,-0.28,0*4,0,12,0.126933,-0.233333,0.126933,-0.126933,0.233333,-0.126933,0.233333,0.126933,0.126933,0.126933,0.126933,0.233333,-0.126933,0.233333,-0.126933,0.126933,-0.233333,0.126933,-0.233333,-0.126933,-0.126933,-0.126933,-0.126933,-0.233333,0.126933,-0.233333,0*%
%AMIconX*4,1,16,0.28,-0.28,0.076347,-0.28,0,-0.203653,-0.076347,-0.28,-0.28,-0.28,-0.28,-0.076347,-0.203653,0,-0.28,0.076347,-0.28,0.28,-0.076347,0.28,0,0.203653,0.076347,0.28,0.28,0.28,0.28,0.076347,0.203653,0,0.28,-0.076347,0.28,-0.28,0*4,0,16,0.23352,-0.23296,0.23352,-0.095853,0.137107,0.000093,0.23352,0.095853,0.23352,0.2331,0.095853,0.2331,0,0.137107,-0.095853,0.2331,-0.23352,0.2331,-0.23352,0.095853,-0.137107,0.000093,-0.23352,-0.095853,-0.23352,-0.23296,-0.095853,-0.23296,0,-0.137107,0.095853,-0.23296,0.23352,-0.23296,0*%
%AMIconDiamond*4,1,4,0,-0.364,-0.364,0,0,0.364,0.364,0,0,-0.364,0*4,0,4,0,-0.284807,0.284807,0,0,0.28504,-0.284807,0,0,-0.284807,0*%
%AMIconRect2*4,1,6,0.28,-0.28,-0.28,-0.28,-0.28,0.28,-0.23352,0.2331,-0.233333,-0.233333,0.23352,-0.233333,0.28,-0.28,0*4,1,6,0.28,-0.28,0.23352,-0.233333,0.23352,0.2331,-0.23352,0.2331,-0.28,0.28,0.28,0.28,0.28,-0.28,0*4,1,6,0.186853,-0.186667,-0.186667,-0.186667,-0.186667,0.186853,-0.14,0.140187,-0.14,-0.14,0.140187,-0.14,0.186853,-0.186667,0*4,1,6,0.186853,-0.186667,0.140187,-0.14,0.140187,0.140187,-0.14,0.140187,-0.186667,0.186853,0.186853,0.186853,0.186853,-0.186667,0*%
%AMCharA*4,1,8,-0.341787,-0.52192,-0.42896,-0.488693,-0.042373,0.52192,0.0448,0.52192,0.42896,-0.488693,0.341787,-0.52192,0.21392,-0.18536,-0.213173,-0.18536,-0.341787,-0.52192,0*4,0,3,-0.177333,-0.092027,0.178267,-0.092027,0.000933,0.37464,-0.177333,-0.092027,0*%
%AMCharB*4,1,17,-0.367173,-0.53032,-0.367173,0.53032,0.093893,0.53032,0.246587,0.482907,0.31192,0.424853,0.367173,0.319573,0.3668,0.186107,0.320133,0.09464,0.265253,0.03584,0.242107,0.02352,0.265253,0.010827,0.320133,-0.047973,0.3668,-0.13944,0.367173,-0.319573,0.31192,-0.424853,0.246587,-0.48328,0.093893,-0.53032,-0.367173,-0.53032,0*4,0,10,-0.27384,-0.436987,0.086427,-0.436987,0.206827,-0.3976,0.240427,-0.364373,0.278693,-0.28784,0.278693,-0.17192,0.240427,-0.096693,0.206827,-0.06328,0.086427,-0.024267,-0.27384,-0.024267,-0.27384,-0.436987,0*4,0,10,-0.27384,0.069067,0.08624,0.069067,0.206827,0.109947,0.240427,0.143547,0.278693,0.218587,0.278693,0.287467,0.240427,0.364373,0.206827,0.3976,0.086427,0.436987,-0.27384,0.436987,-0.27384,0.069067,0*%
%AMCharC*4,1,36,-0.077093,-0.53032,-0.201413,-0.47152,-0.30352,-0.365867,-0.350933,-0.2688,-0.39984,-0.115733,-0.39984,0.115733,-0.34832,0.2744,-0.294747,0.378187,-0.189093,0.480667,-0.077093,0.53032,0.107893,0.53032,0.232587,0.47152,0.334507,0.365867,0.39984,0.2324,0.316027,0.19152,0.254427,0.317707,0.17192,0.400213,0.097253,0.436987,-0.06608,0.436987,-0.140933,0.400213,-0.223253,0.317707,-0.263387,0.236133,-0.306507,0.10808,-0.306507,-0.10808,-0.263387,-0.236133,-0.223253,-0.317707,-0.140933,-0.400027,-0.06608,-0.436987,0.097253,-0.436987,0.17192,-0.400027,0.254427,-0.317707,0.316027,-0.19152,0.39984,-0.2324,0.334507,-0.365867,0.232587,-0.47152,0.107893,-0.53032,-0.077093,-0.53032,0*%
%AMCharD*4,1,12,-0.3696,-0.53032,-0.3696,0.53032,-0.000187,0.53032,0.152693,0.482907,0.27104,0.366613,0.32032,0.268987,0.3696,0.115733,0.3696,-0.115733,0.317707,-0.275147,0.263013,-0.377813,0.152693,-0.48328,-0.000187,-0.53032,-0.3696,-0.53032,0*4,0,12,-0.276267,-0.436987,-0.007467,-0.436987,0.112933,-0.397973,0.191333,-0.317707,0.233147,-0.23576,0.276267,-0.10808,0.276267,0.10808,0.233147,0.23576,0.191333,0.317707,0.112933,0.397973,-0.007467,0.436987,-0.276267,0.436987,-0.276267,-0.436987,0*%
%AMCharE*4,1,12,-0.346267,-0.53032,-0.346267,0.53032,0.346267,0.53032,0.346267,0.436987,-0.252933,0.436987,-0.252933,0.069067,0.11648,0.069067,0.11648,-0.024267,-0.252933,-0.024267,-0.252933,-0.436987,0.346267,-0.436987,0.346267,-0.53032,-0.346267,-0.53032,0*%
%AMCharF*4,1,11,-0.346267,-0.53032,-0.346267,0.53032,-0.252933,0.53032,0.346267,0.53032,0.346267,0.436987,-0.252933,0.436987,-0.252933,0.069067,0.11648,0.069067,0.11648,-0.024267,-0.252933,-0.024267,-0.252933,-0.53032,-0.346267,-0.53032,0*%
%AMCharG*4,1,40,-0.078213,-0.53032,-0.202533,-0.47152,-0.30464,-0.365867,-0.352053,-0.2688,-0.39872,-0.130667,-0.39872,0.130667,-0.34944,0.2744,-0.295867,0.378187,-0.190213,0.480667,-0.078213,0.53032,0.106773,0.53032,0.231467,0.47152,0.333387,0.365867,0.39872,0.2324,0.314907,0.19152,0.253307,0.317707,0.1708,0.400213,0.096133,0.436987,-0.0672,0.436987,-0.142053,0.400213,-0.224373,0.317707,-0.264507,0.236133,-0.30744,0.10808,-0.30744,-0.10808,-0.264507,-0.236133,-0.224373,-0.317707,-0.142053,-0.400027,-0.0672,-0.436987,0.096133,-0.436987,0.1708,-0.400027,0.253307,-0.317707,0.289707,-0.24304,0.289707,-0.1624,0.060107,-0.1624,0.060107,-0.069067,0.38304,-0.069067,0.38304,-0.253867,0.3248,-0.378187,0.218587,-0.480667,0.106773,-0.53032,-0.078213,-0.53032,0*%
%ADD10IconRect*%
%ADD11C,0.616X0.522667*%
%ADD12IconTriangle*%
%ADD13IconStar6*%
%ADD14IconStar4*%
%ADD15IconPlus*%
%ADD16IconX*%
%ADD17IconDiamond*%
%ADD18IconRect2*%
%ADD19CharA*%
%ADD20CharB*%
%ADD21CharC*%
%ADD22CharD*%
%ADD23CharE*%
%ADD24CharF*%
%ADD25CharG*%
G75*


G04 Drill Drawing Start*
G54D10*
G01X-3645800Y3692900D03*
G54D11*
G01X-2314200Y3692900D03*
G54D12*
G01X4817500Y-2790000D03*
G01X4817500Y-1530000D03*
G54D13*
G01X-4775210Y2193008D03*
G01X-4775210Y1362987D03*
G54D14*
G01X-1499999Y4465509D03*
G01X-100001Y4465509D03*
G54D15*
G01X1900503Y4500000D03*
G01X4399497Y4500000D03*
G54D16*
G01X-4819688Y4140200D03*
G01X-4349712Y3840201D03*
G01X-4349712Y4440199D03*
G54D17*
G01X-3749998Y-4049987D03*
G01X-1250003Y-4049987D03*
G01X1250003Y-4049987D03*
G01X3749998Y-4049987D03*
G54D18*
G01X-4600000Y-3350000D03*
G01X-4600000Y2750000D03*
G01X4593650Y-3350000D03*
G01X4600000Y2750000D03*
G54D19*
G01X699000Y3622751D03*
G01X699000Y4212742D03*
G01X699000Y4822749D03*
G01X899000Y4032758D03*
G01X899000Y4582744D03*
G54D20*
G01X-4775210Y1577998D03*
G01X-4775210Y1777997D03*
G01X-4775210Y1977997D03*
G01X-1149984Y4194501D03*
G01X-899997Y4194501D03*
G01X-699995Y4194491D03*
G01X-449983Y4194499D03*
G54D21*
G01X2552496Y4500000D03*
G01X2666994Y4699999D03*
G01X2666996Y4300000D03*
G01X2781494Y4500000D03*
G01X2895995Y4699999D03*
G01X2895995Y4300000D03*
G01X3010496Y4500000D03*
G01X3124999Y4699999D03*
G01X3124999Y4300000D03*
G01X3239499Y4500000D03*
G01X3353998Y4699999D03*
G01X3354000Y4300000D03*
G01X3468498Y4500000D03*
G01X3582999Y4300000D03*
G01X3582999Y4699999D03*
G54D22*
G01X-3054012Y-3908001D03*
G01X-2915506Y-4191999D03*
G01X-2777000Y-3908001D03*
G01X-2638494Y-4191999D03*
G01X-2500013Y-3908001D03*
G01X-2361507Y-4191999D03*
G01X-2223000Y-3908001D03*
G01X-2084494Y-4191999D03*
G01X-1946013Y-3908001D03*
G01X1945988Y-3908001D03*
G01X2084494Y-4191999D03*
G01X2223000Y-3908001D03*
G01X2361507Y-4191999D03*
G01X2499987Y-3908001D03*
G01X2638494Y-4191999D03*
G01X2777000Y-3908001D03*
G01X2915506Y-4191999D03*
G01X3053987Y-3908001D03*
G54D23*
G01X-3712000Y880100D03*
G01X-3712000Y1807200D03*
G01X-3707000Y-684900D03*
G01X-3707000Y242200D03*
G01X-2188000Y880100D03*
G01X-2188000Y1807200D03*
G01X-2183000Y-684900D03*
G01X-2183000Y242200D03*
G01X4347007Y-1213993D03*
G01X4347007Y-564007D03*
G01X4347007Y-324993D03*
G01X4347007Y324993D03*
G01X4347007Y564007D03*
G01X4347007Y1213993D03*
G01X4347007Y1453007D03*
G01X4347007Y2102993D03*
G01X4796993Y-1213993D03*
G01X4796993Y-564007D03*
G01X4796993Y-324993D03*
G01X4796993Y324993D03*
G01X4796993Y564007D03*
G01X4796993Y1213993D03*
G01X4796993Y1453007D03*
G01X4796993Y2102993D03*
G54D24*
G01X-4762500Y539750D03*
G01X-4762500Y1079500D03*
G01X-4677029Y-1777309D03*
G01X-3429000Y-2667000D03*
G01X-3302000Y-2413000D03*
G01X-3175000Y-2159000D03*
G01X-3048000Y-1905000D03*
G01X-2921000Y-1651000D03*
G01X-2794000Y-1397000D03*
G01X-2667000Y-1143000D03*
G01X-2540000Y-889000D03*
G01X-1937506Y3710000D03*
G01X-1482491Y3710000D03*
G01X-1370000Y3600000D03*
G01X-1317368Y3702632D03*
G01X-1170000Y3630000D03*
G01X-977506Y3720000D03*
G01X-522491Y3710000D03*
G01X-394428Y3595178D03*
G01X-353978Y3698034D03*
G01X-207500Y3633860D03*
G01X-190500Y-3956930D03*
G01X-20000Y3850000D03*
G01X29380Y3508409D03*
G01X252688Y-4655058D03*
G01X444500Y-4230000D03*
G01X825500Y-1047750D03*
G01X1000000Y-2397000D03*
G01X1450000Y3850000D03*
G01X1460000Y3510000D03*
G54D25*
G01X-3810000Y-3556000D03*
G01X-3810000Y-3302000D03*
G01X-3810000Y2540000D03*
G01X-3810000Y2794000D03*
G01X-3615000Y3300000D03*
G01X-3556000Y-3556000D03*
G01X-3556000Y-3302000D03*
G01X-3556000Y2540000D03*
G01X-3556000Y2794000D03*
G01X-3361000Y3300000D03*
G01X-3302000Y-3556000D03*
G01X-3302000Y-3302000D03*
G01X-3302000Y2540000D03*
G01X-3302000Y2794000D03*
G01X-3107000Y3300000D03*
G01X-3048000Y-3556000D03*
G01X-3048000Y-3302000D03*
G01X-3048000Y2540000D03*
G01X-3048000Y2794000D03*
G01X-2853000Y3300000D03*
G01X-2794000Y-3556000D03*
G01X-2794000Y-3302000D03*
G01X-2794000Y2540000D03*
G01X-2794000Y2794000D03*
G01X-2599000Y3300000D03*
G01X-2540000Y-3556000D03*
G01X-2540000Y-3302000D03*
G01X-2540000Y2540000D03*
G01X-2540000Y2794000D03*
G01X-2345000Y3300000D03*
G01X-2286000Y-3556000D03*
G01X-2286000Y-3302000D03*
G01X-2286000Y2540000D03*
G01X-2286000Y2794000D03*
G01X-2032000Y-3556000D03*
G01X-2032000Y-3302000D03*
G01X-2032000Y2540000D03*
G01X-2032000Y2794000D03*
G01X-1778000Y-3556000D03*
G01X-1778000Y-3302000D03*
G01X-1778000Y2540000D03*
G01X-1778000Y2794000D03*
G01X-1524000Y-3556000D03*
G01X-1524000Y-3302000D03*
G01X-1524000Y2540000D03*
G01X-1524000Y2794000D03*
G01X-1270000Y-3556000D03*
G01X-1270000Y-3302000D03*
G01X-1270000Y2540000D03*
G01X-1270000Y2794000D03*
G01X-1016000Y-3556000D03*
G01X-1016000Y-3302000D03*
G01X-1016000Y2540000D03*
G01X-1016000Y2794000D03*
G01X-762000Y-3556000D03*
G01X-762000Y-3302000D03*
G01X-762000Y2540000D03*
G01X-762000Y2794000D03*
G01X-508000Y-3302000D03*
G01X-508000Y-3556000D03*
G01X-508000Y2794000D03*
G01X-508000Y2540000D03*
G01X-254000Y-3556000D03*
G01X-254000Y-3302000D03*
G01X-254000Y2540000D03*
G01X-254000Y2794000D03*
G01X0Y-3556000D03*
G01X0Y-3302000D03*
G01X0Y2540000D03*
G01X0Y2794000D03*
G01X254000Y-3556000D03*
G01X254000Y-3302000D03*
G01X254000Y2540000D03*
G01X254000Y2794000D03*
G01X508000Y-3556000D03*
G01X508000Y-3302000D03*
G01X508000Y2540000D03*
G01X508000Y2794000D03*
G01X762000Y-3302000D03*
G01X762000Y-3556000D03*
G01X762000Y2794000D03*
G01X762000Y2540000D03*
G01X1016000Y-3556000D03*
G01X1016000Y-3302000D03*
G01X1016000Y2540000D03*
G01X1016000Y2794000D03*
G01X1270000Y-3556000D03*
G01X1270000Y-3302000D03*
G01X1270000Y2540000D03*
G01X1270000Y2794000D03*
G01X1524000Y-3556000D03*
G01X1524000Y-3302000D03*
G01X1524000Y2540000D03*
G01X1524000Y2794000D03*
G01X1778000Y-3556000D03*
G01X1778000Y-3302000D03*
G01X1778000Y2540000D03*
G01X1778000Y2794000D03*
G01X2032000Y-3556000D03*
G01X2032000Y-3302000D03*
G01X2032000Y2540000D03*
G01X2032000Y2794000D03*
G01X2286000Y-3556000D03*
G01X2286000Y-3302000D03*
G01X2286000Y2540000D03*
G01X2286000Y2794000D03*
G01X2540000Y-3556000D03*
G01X2540000Y-3302000D03*
G01X2540000Y2540000D03*
G01X2540000Y2794000D03*
G01X2794000Y-3556000D03*
G01X2794000Y-3302000D03*
G01X2794000Y2540000D03*
G01X2794000Y2794000D03*
G01X3048000Y-3556000D03*
G01X3048000Y-3302000D03*
G01X3048000Y2540000D03*
G01X3048000Y2794000D03*
G01X3302000Y-3556000D03*
G01X3302000Y-3302000D03*
G01X3302000Y2540000D03*
G01X3302000Y2794000D03*
G01X3430000Y-2795000D03*
G01X3430000Y-2541000D03*
G01X3430000Y-2287000D03*
G01X3430000Y-2033000D03*
G01X3430000Y-1779000D03*
G01X3430000Y-1525000D03*
G01X3556000Y-3556000D03*
G01X3556000Y-3302000D03*
G01X3556000Y2540000D03*
G01X3556000Y2794000D03*
G01X3810000Y-3556000D03*
G01X3810000Y-3302000D03*
G01X3810000Y2540000D03*
G01X3810000Y2794000D03*
G01X4064000Y-3556000D03*
G01X4064000Y-3302000D03*
G01X4064000Y2540000D03*
G01X4064000Y2794000D03*
G04 Drill Drawing End*

M02*

