G04 Layer: TopSolderMaskLayer*
G04 EasyEDA Pro v2.2.47.7, 2026-04-28 21:33:04*
G04 Gerber Generator version 0.3*
G04 Scale: 100 percent, Rotated: No, Reflected: No*
G04 Dimensions in millimeters*
G04 Leading zeros omitted, absolute positions, 4 integers and 5 decimals*
G04 Generated by one-click*
G04 Object Configs: Pad,Via,Track,Text,Image,Dimension,BoardOutline,BoardCutout,CopperFilled,SolidRegion,FPCStiffener,Line,PlaneZone,ComponentProperty,ComponentSilkscreen,TearDrop*
G04 Layer Configs: 1,2,3,4,5,6,7,8,9,10,11,13,14,56*
G04 Copper Areas: 0*
%FSLAX45Y45*%
%MOMM*%
%AMRoundRect*1,1,$1,$2,$3*1,1,$1,$4,$5*1,1,$1,0-$2,0-$3*1,1,$1,0-$4,0-$5*20,1,$1,$2,$3,$4,$5,0*20,1,$1,$4,$5,0-$2,0-$3,0*20,1,$1,0-$2,0-$3,0-$4,0-$5,0*20,1,$1,0-$4,0-$5,$2,$3,0*4,1,4,$2,$3,$4,$5,0-$2,0-$3,0-$4,0-$5,$2,$3,0*%
%ADD10O,3.1016X1.6016*%
%ADD11C,5.10159*%
%ADD12C,1.9016*%
%ADD13RoundRect,0.09645X-0.90257X0.90257X0.90257X0.90257*%
%ADD14RoundRect,0.09549X-0.86705X-0.74556X-0.86705X0.74556*%
%ADD15O,1.7030X3.70002*%
%ADD16O,1.70002X3.70002*%
%ADD17O,3.70002X1.70002*%
%ADD18O,0.70361X2.07259*%
%ADD19C,1.7016*%
%ADD20O,0.46561X2.17081*%
%ADD21O,2.90159X1.8016*%
%ADD22RoundRect,0.09562X-0.76499X-0.76499X-0.76499X0.76499*%
%ADD23C,1.6256*%
%ADD24RoundRect,0.09495X-0.70833X0.67833X0.70833X0.67833*%
%ADD25RoundRect,0.09495X-0.67833X-0.70833X-0.67833X0.70833*%
%ADD26RoundRect,0.09387X-0.69237X-0.57013X-0.69237X0.57013*%
%ADD27RoundRect,0.09387X-0.57013X0.69237X0.57013X0.69237*%
%ADD28O,2.3X1.5*%
%ADD29C,1.6*%
%ADD30C,4.4032*%
%ADD31RoundRect,0.09302X-0.50429X0.70406X0.50429X0.70406*%
%ADD32C,3.20159*%
%ADD33C,1.6016*%
%ADD34C,1.8016*%
%ADD35O,3.80159X1.6016*%
%ADD36RoundRect,0.09138X-0.43711X-0.40835X-0.43711X0.40835*%
%ADD37RoundRect,0.08832X-0.29364X0.65664X0.29364X0.65664*%
G75*


G04 Pad Start*
G54D10*
G01X4817500Y-1530000D03*
G01X4817500Y-2790000D03*
G54D11*
G01X-1250003Y-4049987D03*
G54D12*
G01X-2915506Y-4191999D03*
G01X-2638494Y-4191999D03*
G01X-2361507Y-4191999D03*
G01X-2084494Y-4191999D03*
G54D13*
G01X-3054012Y-3908001D03*
G54D12*
G01X-2777000Y-3908001D03*
G01X-2223000Y-3908001D03*
G01X-1946013Y-3908001D03*
G54D11*
G01X-3749998Y-4049987D03*
G54D12*
G01X-2500013Y-3908001D03*
G54D11*
G01X3749998Y-4049987D03*
G54D12*
G01X2084494Y-4191999D03*
G01X2361507Y-4191999D03*
G01X2638494Y-4191999D03*
G01X2915506Y-4191999D03*
G54D13*
G01X1945988Y-3908001D03*
G54D12*
G01X2223000Y-3908001D03*
G01X2777000Y-3908001D03*
G01X3053987Y-3908001D03*
G54D11*
G01X1250003Y-4049987D03*
G54D12*
G01X2499987Y-3908001D03*
G54D14*
G01X1270000Y4499258D03*
G01X1270000Y4180742D03*
G01X170000Y4499258D03*
G01X170000Y4180742D03*
G54D16*
G01X-4819688Y4140200D03*
G54D17*
G01X-4349712Y4440199D03*
G01X-4349712Y3840201D03*
G54D18*
G01X-444500Y-4655058D03*
G01X-317500Y-4655058D03*
G01X-190500Y-4655058D03*
G01X-63500Y-4655058D03*
G01X63500Y-4655058D03*
G01X190500Y-4655058D03*
G01X317500Y-4655058D03*
G01X444500Y-4655058D03*
G01X-444500Y-4107942D03*
G01X-317500Y-4107942D03*
G01X-190500Y-4107942D03*
G01X-63500Y-4107942D03*
G01X63500Y-4107942D03*
G01X190500Y-4107942D03*
G01X317500Y-4107942D03*
G01X444500Y-4107942D03*
G54D19*
G01X-3707000Y-684900D03*
G01X-3707000Y242200D03*
G01X-2183000Y-684900D03*
G01X-2183000Y242200D03*
G54D20*
G01X-392493Y3848209D03*
G01X-457492Y3848209D03*
G01X-522491Y3848209D03*
G01X-587489Y3848209D03*
G01X-652513Y3848209D03*
G01X-717512Y3848209D03*
G01X-782510Y3848209D03*
G01X-847509Y3848209D03*
G01X-912508Y3848209D03*
G01X-977506Y3848209D03*
G01X-392493Y3151792D03*
G01X-457492Y3151792D03*
G01X-522491Y3151792D03*
G01X-587489Y3151792D03*
G01X-652513Y3151792D03*
G01X-717512Y3151792D03*
G01X-782510Y3151792D03*
G01X-847509Y3151792D03*
G01X-912508Y3151792D03*
G01X-977506Y3151792D03*
G54D19*
G01X-3712000Y880100D03*
G01X-3712000Y1807200D03*
G01X-2188000Y880100D03*
G01X-2188000Y1807200D03*
G54D21*
G01X899000Y4582744D03*
G01X699000Y3622751D03*
G01X899000Y4032758D03*
G01X699000Y4212742D03*
G01X699000Y4822749D03*
G54D22*
G01X-3615000Y3300000D03*
G54D23*
G01X-3361000Y3300000D03*
G01X-3107000Y3300000D03*
G01X-2853000Y3300000D03*
G01X-2599000Y3300000D03*
G01X-2345000Y3300000D03*
G54D24*
G01X240000Y3390000D03*
G01X40000Y3390000D03*
G01X1460000Y3390000D03*
G01X1260000Y3390000D03*
G01X1450000Y3970000D03*
G01X1250000Y3970000D03*
G01X180000Y3970000D03*
G01X-20000Y3970000D03*
G01X-420000Y-3850000D03*
G01X-220000Y-3850000D03*
G54D25*
G01X-207500Y3287500D03*
G01X-207500Y3487500D03*
G54D26*
G01X460000Y3400000D03*
G01X460000Y3200000D03*
G01X1040000Y3400000D03*
G01X1040000Y3200000D03*
G01X180000Y3780000D03*
G01X180000Y3580000D03*
G01X1250000Y3780000D03*
G01X1250000Y3580000D03*
G54D27*
G01X650000Y3390000D03*
G01X850000Y3390000D03*
G54D28*
G01X-4775210Y2193008D03*
G01X-4775210Y1362987D03*
G54D29*
G01X-4775210Y1577998D03*
G01X-4775210Y1777997D03*
G01X-4775210Y1977997D03*
G54D27*
G01X-4059250Y1079500D03*
G01X-4259250Y1079500D03*
G01X-4059250Y-1397000D03*
G01X-4259250Y-1397000D03*
G01X-4059250Y-1143000D03*
G01X-4259250Y-1143000D03*
G01X-4059250Y-889000D03*
G01X-4259250Y-889000D03*
G54D12*
G01X4347007Y1453007D03*
G01X4347007Y2102993D03*
G01X4796993Y1453007D03*
G01X4796993Y2102993D03*
G01X4347007Y564007D03*
G01X4347007Y1213993D03*
G01X4796993Y564007D03*
G01X4796993Y1213993D03*
G01X4347007Y-324993D03*
G01X4347007Y324993D03*
G01X4796993Y-324993D03*
G01X4796993Y324993D03*
G01X4347007Y-1213993D03*
G01X4347007Y-564007D03*
G01X4796993Y-1213993D03*
G01X4796993Y-564007D03*
G54D30*
G01X-4600000Y2750000D03*
G01X-4600000Y-3350000D03*
G01X4600000Y2750000D03*
G01X4593650Y-3350000D03*
G54D27*
G01X-4059250Y539750D03*
G01X-4259250Y539750D03*
G54D31*
G01X-4677029Y-889000D03*
G01X-4466971Y-889000D03*
G01X-4677029Y-1143000D03*
G01X-4466971Y-1143000D03*
G01X-4677029Y-1397000D03*
G01X-4466971Y-1397000D03*
G01X-4677029Y1079500D03*
G01X-4466971Y1079500D03*
G01X-4677029Y539750D03*
G01X-4466971Y539750D03*
G54D25*
G01X-1165000Y3287500D03*
G01X-1165000Y3487500D03*
G54D20*
G01X-1352494Y3848209D03*
G01X-1417492Y3848209D03*
G01X-1482491Y3848209D03*
G01X-1547489Y3848209D03*
G01X-1612513Y3848209D03*
G01X-1677512Y3848209D03*
G01X-1742511Y3848209D03*
G01X-1807509Y3848209D03*
G01X-1872508Y3848209D03*
G01X-1937506Y3848209D03*
G01X-1352494Y3151792D03*
G01X-1417492Y3151792D03*
G01X-1482491Y3151792D03*
G01X-1547489Y3151792D03*
G01X-1612513Y3151792D03*
G01X-1677512Y3151792D03*
G01X-1742511Y3151792D03*
G01X-1807509Y3151792D03*
G01X-1872508Y3151792D03*
G01X-1937506Y3151792D03*
G54D23*
G01X3430000Y-1525000D03*
G01X3430000Y-1779000D03*
G01X3430000Y-2033000D03*
G01X3430000Y-2287000D03*
G01X3430000Y-2541000D03*
G01X3430000Y-2795000D03*
G54D31*
G01X-4677029Y-1651000D03*
G01X-4466971Y-1651000D03*
G54D27*
G01X-4059250Y-1651000D03*
G01X-4259250Y-1651000D03*
G54D22*
G01X4064000Y2794000D03*
G54D23*
G01X4064000Y2540000D03*
G01X3810000Y2794000D03*
G01X3810000Y2540000D03*
G01X3556000Y2794000D03*
G01X3556000Y2540000D03*
G01X3302000Y2794000D03*
G01X3302000Y2540000D03*
G01X3048000Y2794000D03*
G01X3048000Y2540000D03*
G01X2794000Y2794000D03*
G01X2794000Y2540000D03*
G01X2540000Y2794000D03*
G01X2540000Y2540000D03*
G01X2286000Y2794000D03*
G01X2286000Y2540000D03*
G01X2032000Y2794000D03*
G01X2032000Y2540000D03*
G01X1778000Y2794000D03*
G01X1778000Y2540000D03*
G01X1524000Y2794000D03*
G01X1524000Y2540000D03*
G01X1270000Y2794000D03*
G01X1270000Y2540000D03*
G01X1016000Y2794000D03*
G01X1016000Y2540000D03*
G01X762000Y2794000D03*
G01X762000Y2540000D03*
G01X508000Y2794000D03*
G01X508000Y2540000D03*
G01X254000Y2794000D03*
G01X254000Y2540000D03*
G01X0Y2794000D03*
G01X0Y2540000D03*
G01X-254000Y2794000D03*
G01X-254000Y2540000D03*
G01X-508000Y2794000D03*
G01X-508000Y2540000D03*
G01X-762000Y2794000D03*
G01X-762000Y2540000D03*
G01X-1016000Y2794000D03*
G01X-1016000Y2540000D03*
G01X-1270000Y2794000D03*
G01X-1270000Y2540000D03*
G01X-1524000Y2794000D03*
G01X-1524000Y2540000D03*
G01X-1778000Y2794000D03*
G01X-1778000Y2540000D03*
G01X-2032000Y2794000D03*
G01X-2032000Y2540000D03*
G01X-2286000Y2794000D03*
G01X-2286000Y2540000D03*
G01X-2540000Y2794000D03*
G01X-2540000Y2540000D03*
G01X-2794000Y2794000D03*
G01X-2794000Y2540000D03*
G01X-3048000Y2794000D03*
G01X-3048000Y2540000D03*
G01X-3302000Y2794000D03*
G01X-3302000Y2540000D03*
G01X-3556000Y2794000D03*
G01X-3556000Y2540000D03*
G01X-3810000Y2794000D03*
G01X-3810000Y2540000D03*
G01X4064000Y-3302000D03*
G01X4064000Y-3556000D03*
G01X3810000Y-3302000D03*
G01X3810000Y-3556000D03*
G01X3556000Y-3302000D03*
G01X3556000Y-3556000D03*
G01X3302000Y-3302000D03*
G01X3302000Y-3556000D03*
G01X3048000Y-3302000D03*
G01X3048000Y-3556000D03*
G01X2794000Y-3302000D03*
G01X2794000Y-3556000D03*
G01X2540000Y-3302000D03*
G01X2540000Y-3556000D03*
G01X2286000Y-3302000D03*
G01X2286000Y-3556000D03*
G01X2032000Y-3302000D03*
G01X2032000Y-3556000D03*
G01X1778000Y-3302000D03*
G01X1778000Y-3556000D03*
G01X1524000Y-3302000D03*
G01X1524000Y-3556000D03*
G01X1270000Y-3302000D03*
G01X1270000Y-3556000D03*
G01X1016000Y-3302000D03*
G01X1016000Y-3556000D03*
G01X762000Y-3302000D03*
G01X762000Y-3556000D03*
G01X508000Y-3302000D03*
G01X508000Y-3556000D03*
G01X254000Y-3302000D03*
G01X254000Y-3556000D03*
G01X0Y-3302000D03*
G01X0Y-3556000D03*
G01X-254000Y-3302000D03*
G01X-254000Y-3556000D03*
G01X-508000Y-3302000D03*
G01X-508000Y-3556000D03*
G01X-762000Y-3302000D03*
G01X-762000Y-3556000D03*
G01X-1016000Y-3302000D03*
G01X-1016000Y-3556000D03*
G01X-1270000Y-3302000D03*
G01X-1270000Y-3556000D03*
G01X-1524000Y-3302000D03*
G01X-1524000Y-3556000D03*
G01X-1778000Y-3302000D03*
G01X-1778000Y-3556000D03*
G01X-2032000Y-3302000D03*
G01X-2032000Y-3556000D03*
G01X-2286000Y-3302000D03*
G01X-2286000Y-3556000D03*
G01X-2540000Y-3302000D03*
G01X-2540000Y-3556000D03*
G01X-2794000Y-3302000D03*
G01X-2794000Y-3556000D03*
G01X-3048000Y-3302000D03*
G01X-3048000Y-3556000D03*
G01X-3302000Y-3302000D03*
G01X-3302000Y-3556000D03*
G01X-3556000Y-3302000D03*
G01X-3556000Y-3556000D03*
G01X-3810000Y-3302000D03*
G01X-3810000Y-3556000D03*
G54D32*
G01X-1499999Y4465509D03*
G01X-100001Y4465509D03*
G54D33*
G01X-449983Y4194499D03*
G01X-699995Y4194491D03*
G01X-899997Y4194501D03*
G01X-1149984Y4194501D03*
G54D34*
G01X2666996Y4300000D03*
G01X2895995Y4300000D03*
G01X3124999Y4300000D03*
G01X3354000Y4300000D03*
G01X3582999Y4300000D03*
G01X2552496Y4500000D03*
G01X2781494Y4500000D03*
G01X3010496Y4500000D03*
G01X3239499Y4500000D03*
G01X3468498Y4500000D03*
G01X2666994Y4699999D03*
G01X2895995Y4699999D03*
G01X3124999Y4699999D03*
G01X3353998Y4699999D03*
G01X3582999Y4699999D03*
G54D35*
G01X4399497Y4500000D03*
G01X1900503Y4500000D03*
G54D36*
G01X3397250Y3504336D03*
G01X3397250Y3353664D03*
G01X3270250Y3504336D03*
G01X3270250Y3353664D03*
G01X3524250Y3504336D03*
G01X3524250Y3353664D03*
G01X3143250Y3504336D03*
G01X3143250Y3353664D03*
G01X3016250Y3504336D03*
G01X3016250Y3353664D03*
G01X2762250Y3504336D03*
G01X2762250Y3353664D03*
G01X2635250Y3504336D03*
G01X2635250Y3353664D03*
G01X2889250Y3504336D03*
G01X2889250Y3353664D03*
G01X2508250Y3504336D03*
G01X2508250Y3353664D03*
G01X2381250Y3504336D03*
G01X2381250Y3353664D03*
G01X2127250Y3504336D03*
G01X2127250Y3353664D03*
G01X2000250Y3504336D03*
G01X2000250Y3353664D03*
G01X2254250Y3504336D03*
G01X2254250Y3353664D03*
G01X1873250Y3504336D03*
G01X1873250Y3353664D03*
G01X1746250Y3504336D03*
G01X1746250Y3353664D03*
G01X3810000Y3504336D03*
G01X3810000Y3353664D03*
G01X3651250Y3504336D03*
G01X3651250Y3353664D03*
G54D37*
G01X1841500Y-1159510D03*
G01X1714500Y-1159510D03*
G01X1587500Y-1159510D03*
G01X1460500Y-1159510D03*
G01X1333500Y-1159510D03*
G01X1206500Y-1159510D03*
G01X1079500Y-1159510D03*
G01X952500Y-1159510D03*
G01X825500Y-1159510D03*
G01X698500Y-1159510D03*
G01X571500Y-1159510D03*
G01X444500Y-1159510D03*
G01X317500Y-1159510D03*
G01X190500Y-1159510D03*
G01X63500Y-1159510D03*
G01X-63500Y-1159510D03*
G01X-63500Y-2269490D03*
G01X63500Y-2269490D03*
G01X190500Y-2269490D03*
G01X317500Y-2269490D03*
G01X444500Y-2269490D03*
G01X571500Y-2269490D03*
G01X698500Y-2269490D03*
G01X825500Y-2269490D03*
G01X952500Y-2269490D03*
G01X1079500Y-2269490D03*
G01X1206500Y-2269490D03*
G01X1333500Y-2269490D03*
G01X1460500Y-2269490D03*
G01X1587500Y-2269490D03*
G01X1714500Y-2269490D03*
G01X1841500Y-2269490D03*
G54D24*
G01X800000Y-2500000D03*
G01X1000000Y-2500000D03*
G01X989000Y-920750D03*
G01X789000Y-920750D03*
G54D31*
G01X-4677029Y-2413000D03*
G01X-4466971Y-2413000D03*
G01X-4677029Y-2667000D03*
G01X-4466971Y-2667000D03*
G01X-4677029Y-1905000D03*
G01X-4466971Y-1905000D03*
G01X-4677029Y-2159000D03*
G01X-4466971Y-2159000D03*
G54D27*
G01X-4059250Y-2413000D03*
G01X-4259250Y-2413000D03*
G01X-4059250Y-2159000D03*
G01X-4259250Y-2159000D03*
G01X-4059250Y-1905000D03*
G01X-4259250Y-1905000D03*
G01X-4059250Y-2667000D03*
G01X-4259250Y-2667000D03*
G04 Pad End*

M02*

