G04 Layer: TopPasteMaskLayer*
G04 EasyEDA Pro v2.2.47.7, 2026-04-28 21:33:04*
G04 Gerber Generator version 0.3*
G04 Scale: 100 percent, Rotated: No, Reflected: No*
G04 Dimensions in millimeters*
G04 Leading zeros omitted, absolute positions, 4 integers and 5 decimals*
G04 Generated by one-click*
G04 Object Configs: Pad,Via,Track,Text,Image,Dimension,BoardOutline,BoardCutout,CopperFilled,SolidRegion,FPCStiffener,Line,PlaneZone,ComponentProperty,ComponentSilkscreen,TearDrop*
G04 Layer Configs: 1,2,3,4,5,6,7,8,9,10,11,13,14,56*
G04 Copper Areas: 0*
%FSLAX45Y45*%
%MOMM*%
%ADD10O,0.60201X1.97099*%
%ADD11O,0.36401X2.06921*%
%ADD12R,1.0X1.39954*%
%ADD13R,0.57399X1.3*%
%ADD14C,0.4438*%
G75*


G04 PolygonModel Start*
G36*
G01X1346401Y4425001D02*
G01X1309375Y4425001D01*
G01X1299375Y4435001D01*
G01X1299375Y4465491D01*
G01X1289375Y4475491D01*
G01X1250625Y4475491D01*
G01X1240625Y4465491D01*
G01X1240625Y4435001D01*
G01X1230625Y4425001D01*
G01X1193599Y4425001D01*
G01X1183599Y4435001D01*
G01X1183599Y4563500D01*
G01X1193599Y4573500D01*
G01X1346401Y4573500D01*
G01X1356401Y4563500D01*
G01X1356401Y4435001D01*
G01X1346401Y4425001D01*
G37*
G36*
G01X1346401Y4254999D02*
G01X1309375Y4254999D01*
G01X1299375Y4244999D01*
G01X1299375Y4214509D01*
G01X1289375Y4204509D01*
G01X1250625Y4204509D01*
G01X1240625Y4214509D01*
G01X1240625Y4244999D01*
G01X1230625Y4254999D01*
G01X1193599Y4254999D01*
G01X1183599Y4244999D01*
G01X1183599Y4116500D01*
G01X1193599Y4106500D01*
G01X1346401Y4106500D01*
G01X1356401Y4116500D01*
G01X1356401Y4244999D01*
G01X1346401Y4254999D01*
G37*
G36*
G01X246401Y4425001D02*
G01X209375Y4425001D01*
G01X199375Y4435001D01*
G01X199375Y4465491D01*
G01X189375Y4475491D01*
G01X150625Y4475491D01*
G01X140625Y4465491D01*
G01X140625Y4435001D01*
G01X130625Y4425001D01*
G01X93599Y4425001D01*
G01X83599Y4435001D01*
G01X83599Y4563500D01*
G01X93599Y4573500D01*
G01X246401Y4573500D01*
G01X256401Y4563500D01*
G01X256401Y4435001D01*
G01X246401Y4425001D01*
G37*
G36*
G01X246401Y4254999D02*
G01X209375Y4254999D01*
G01X199375Y4244999D01*
G01X199375Y4214509D01*
G01X189375Y4204509D01*
G01X150625Y4204509D01*
G01X140625Y4214509D01*
G01X140625Y4244999D01*
G01X130625Y4254999D01*
G01X93599Y4254999D01*
G01X83599Y4244999D01*
G01X83599Y4116500D01*
G01X93599Y4106500D01*
G01X246401Y4106500D01*
G01X256401Y4116500D01*
G01X256401Y4244999D01*
G01X246401Y4254999D01*
G37*
G36*
G01X-30498Y3326000D02*
G01X-30498Y3453998D01*
G01X-25496Y3458999D01*
G01X89505Y3458999D01*
G01X94503Y3453998D01*
G01X95006Y3412995D01*
G01X50005Y3412995D01*
G01X50005Y3367996D01*
G01X94006Y3367996D01*
G01X94503Y3326000D01*
G01X89505Y3320998D01*
G01X-25496Y3320998D01*
G01X-30498Y3326000D01*
G37*
G36*
G01X310497Y3454000D02*
G01X310497Y3326002D01*
G01X305496Y3321001D01*
G01X190495Y3321001D01*
G01X185496Y3326002D01*
G01X184994Y3367005D01*
G01X229995Y3367005D01*
G01X229995Y3412004D01*
G01X185994Y3412004D01*
G01X185496Y3454000D01*
G01X190495Y3459002D01*
G01X305496Y3459002D01*
G01X310497Y3454000D01*
G37*
G36*
G01X1189503Y3326000D02*
G01X1189503Y3453998D01*
G01X1194504Y3458999D01*
G01X1309505Y3458999D01*
G01X1314504Y3453998D01*
G01X1315007Y3412995D01*
G01X1270005Y3412995D01*
G01X1270005Y3367996D01*
G01X1314006Y3367996D01*
G01X1314504Y3326000D01*
G01X1309505Y3320998D01*
G01X1194504Y3320998D01*
G01X1189503Y3326000D01*
G37*
G36*
G01X1530498Y3454000D02*
G01X1530498Y3326002D01*
G01X1525496Y3321001D01*
G01X1410495Y3321001D01*
G01X1405497Y3326002D01*
G01X1404994Y3367005D01*
G01X1449995Y3367005D01*
G01X1449995Y3412004D01*
G01X1405994Y3412004D01*
G01X1405497Y3454000D01*
G01X1410495Y3459002D01*
G01X1525496Y3459002D01*
G01X1530498Y3454000D01*
G37*
G36*
G01X1179502Y3906000D02*
G01X1179502Y4033998D01*
G01X1184504Y4038999D01*
G01X1299505Y4038999D01*
G01X1304503Y4033998D01*
G01X1305006Y3992995D01*
G01X1260005Y3992995D01*
G01X1260005Y3947996D01*
G01X1304006Y3947996D01*
G01X1304503Y3906000D01*
G01X1299505Y3900998D01*
G01X1184504Y3900998D01*
G01X1179502Y3906000D01*
G37*
G36*
G01X1520497Y4034000D02*
G01X1520497Y3906002D01*
G01X1515496Y3901001D01*
G01X1400495Y3901001D01*
G01X1395496Y3906002D01*
G01X1394993Y3947005D01*
G01X1439995Y3947005D01*
G01X1439995Y3992004D01*
G01X1395994Y3992004D01*
G01X1395496Y4034000D01*
G01X1400495Y4039002D01*
G01X1515496Y4039002D01*
G01X1520497Y4034000D01*
G37*
G36*
G01X-90498Y3906000D02*
G01X-90498Y4033998D01*
G01X-85496Y4038999D01*
G01X29505Y4038999D01*
G01X34503Y4033998D01*
G01X35006Y3992995D01*
G01X-9995Y3992995D01*
G01X-9995Y3947996D01*
G01X34006Y3947996D01*
G01X34503Y3906000D01*
G01X29505Y3900998D01*
G01X-85496Y3900998D01*
G01X-90498Y3906000D01*
G37*
G36*
G01X250497Y4034000D02*
G01X250497Y3906002D01*
G01X245496Y3901001D01*
G01X130495Y3901001D01*
G01X125496Y3906002D01*
G01X124993Y3947005D01*
G01X169995Y3947005D01*
G01X169995Y3992004D01*
G01X125994Y3992004D01*
G01X125496Y4034000D01*
G01X130495Y4039002D01*
G01X245496Y4039002D01*
G01X250497Y4034000D01*
G37*
G36*
G01X-149503Y-3786000D02*
G01X-149503Y-3913998D01*
G01X-154504Y-3918999D01*
G01X-269505Y-3918999D01*
G01X-274504Y-3913998D01*
G01X-275007Y-3872995D01*
G01X-230005Y-3872995D01*
G01X-230005Y-3827996D01*
G01X-274006Y-3827996D01*
G01X-274504Y-3786000D01*
G01X-269505Y-3780998D01*
G01X-154504Y-3780998D01*
G01X-149503Y-3786000D01*
G37*
G36*
G01X-490498Y-3914000D02*
G01X-490498Y-3786002D01*
G01X-485496Y-3781001D01*
G01X-370495Y-3781001D01*
G01X-365497Y-3786002D01*
G01X-364994Y-3827005D01*
G01X-409995Y-3827005D01*
G01X-409995Y-3872004D01*
G01X-365994Y-3872004D01*
G01X-365497Y-3914000D01*
G01X-370495Y-3919002D01*
G01X-485496Y-3919002D01*
G01X-490498Y-3914000D01*
G37*
G36*
G01X-271500Y3557997D02*
G01X-143502Y3557997D01*
G01X-138501Y3552996D01*
G01X-138501Y3437995D01*
G01X-143502Y3432996D01*
G01X-184505Y3432494D01*
G01X-184505Y3477495D01*
G01X-229504Y3477495D01*
G01X-229504Y3433494D01*
G01X-271500Y3432996D01*
G01X-276502Y3437995D01*
G01X-276502Y3552996D01*
G01X-271500Y3557997D01*
G37*
G36*
G01X-143500Y3217002D02*
G01X-271498Y3217002D01*
G01X-276499Y3222004D01*
G01X-276499Y3337005D01*
G01X-271498Y3342003D01*
G01X-230495Y3342506D01*
G01X-230495Y3297505D01*
G01X-185496Y3297505D01*
G01X-185496Y3341506D01*
G01X-143500Y3342003D01*
G01X-138498Y3337005D01*
G01X-138498Y3222004D01*
G01X-143500Y3217002D01*
G37*
G36*
G01X524000Y3129998D02*
G01X396002Y3129998D01*
G01X391001Y3134999D01*
G01X391001Y3250000D01*
G01X396002Y3254999D01*
G01X437005Y3255502D01*
G01X437005Y3210501D01*
G01X482004Y3210501D01*
G01X482004Y3254501D01*
G01X524000Y3254999D01*
G01X529002Y3250000D01*
G01X529002Y3134999D01*
G01X524000Y3129998D01*
G37*
G36*
G01X524000Y3344999D02*
G01X482004Y3345001D01*
G01X482004Y3389499D01*
G01X437005Y3389499D01*
G01X437005Y3345502D01*
G01X396002Y3344999D01*
G01X391001Y3350000D01*
G01X391001Y3464998D01*
G01X396002Y3470000D01*
G01X524000Y3470000D01*
G01X529002Y3464998D01*
G01X529002Y3350000D01*
G01X524000Y3344999D01*
G37*
G36*
G01X1104000Y3129998D02*
G01X976002Y3129998D01*
G01X971001Y3134999D01*
G01X971001Y3250000D01*
G01X976002Y3254999D01*
G01X1017005Y3255502D01*
G01X1017005Y3210501D01*
G01X1062004Y3210501D01*
G01X1062004Y3254501D01*
G01X1104000Y3254999D01*
G01X1109002Y3250000D01*
G01X1109002Y3134999D01*
G01X1104000Y3129998D01*
G37*
G36*
G01X1104000Y3344999D02*
G01X1062004Y3345001D01*
G01X1062004Y3389499D01*
G01X1017005Y3389499D01*
G01X1017005Y3345502D01*
G01X976002Y3344999D01*
G01X971001Y3350000D01*
G01X971001Y3464998D01*
G01X976002Y3470000D01*
G01X1104000Y3470000D01*
G01X1109002Y3464998D01*
G01X1109002Y3350000D01*
G01X1104000Y3344999D01*
G37*
G36*
G01X244000Y3509998D02*
G01X116002Y3509998D01*
G01X111001Y3514999D01*
G01X111001Y3630000D01*
G01X116002Y3634999D01*
G01X157005Y3635502D01*
G01X157005Y3590501D01*
G01X202004Y3590501D01*
G01X202004Y3634501D01*
G01X244000Y3634999D01*
G01X249002Y3630000D01*
G01X249002Y3514999D01*
G01X244000Y3509998D01*
G37*
G36*
G01X244000Y3724999D02*
G01X202004Y3725001D01*
G01X202004Y3769499D01*
G01X157005Y3769499D01*
G01X157005Y3725502D01*
G01X116002Y3724999D01*
G01X111001Y3730000D01*
G01X111001Y3844998D01*
G01X116002Y3850000D01*
G01X244000Y3850000D01*
G01X249002Y3844998D01*
G01X249002Y3730000D01*
G01X244000Y3724999D01*
G37*
G36*
G01X1314000Y3509998D02*
G01X1186002Y3509998D01*
G01X1181001Y3514999D01*
G01X1181001Y3630000D01*
G01X1186002Y3634999D01*
G01X1227005Y3635502D01*
G01X1227005Y3590501D01*
G01X1272004Y3590501D01*
G01X1272004Y3634501D01*
G01X1314000Y3634999D01*
G01X1319002Y3630000D01*
G01X1319002Y3514999D01*
G01X1314000Y3509998D01*
G37*
G36*
G01X1314000Y3724999D02*
G01X1272004Y3725001D01*
G01X1272004Y3769499D01*
G01X1227005Y3769499D01*
G01X1227005Y3725502D01*
G01X1186002Y3724999D01*
G01X1181001Y3730000D01*
G01X1181001Y3844998D01*
G01X1186002Y3850000D01*
G01X1314000Y3850000D01*
G01X1319002Y3844998D01*
G01X1319002Y3730000D01*
G01X1314000Y3724999D01*
G37*
G36*
G01X920002Y3454000D02*
G01X920002Y3326002D01*
G01X915001Y3321001D01*
G01X800000Y3321001D01*
G01X795001Y3326002D01*
G01X794498Y3367005D01*
G01X839499Y3367005D01*
G01X839499Y3412004D01*
G01X795499Y3412004D01*
G01X795001Y3454000D01*
G01X800000Y3459002D01*
G01X915001Y3459002D01*
G01X920002Y3454000D01*
G37*
G36*
G01X705001Y3454000D02*
G01X704999Y3412004D01*
G01X660501Y3412004D01*
G01X660501Y3367005D01*
G01X704498Y3367005D01*
G01X705001Y3326002D01*
G01X700000Y3321001D01*
G01X585002Y3321001D01*
G01X580000Y3326002D01*
G01X580000Y3454000D01*
G01X585002Y3459002D01*
G01X700000Y3459002D01*
G01X705001Y3454000D01*
G37*
G36*
G01X-4329252Y1015500D02*
G01X-4329252Y1143498D01*
G01X-4324251Y1148499D01*
G01X-4209250Y1148499D01*
G01X-4204251Y1143498D01*
G01X-4203748Y1102495D01*
G01X-4248749Y1102495D01*
G01X-4248749Y1057496D01*
G01X-4204749Y1057496D01*
G01X-4204251Y1015500D01*
G01X-4209250Y1010498D01*
G01X-4324251Y1010498D01*
G01X-4329252Y1015500D01*
G37*
G36*
G01X-4114251Y1015500D02*
G01X-4114249Y1057496D01*
G01X-4069751Y1057496D01*
G01X-4069751Y1102495D01*
G01X-4113748Y1102495D01*
G01X-4114251Y1143498D01*
G01X-4109250Y1148499D01*
G01X-3994252Y1148499D01*
G01X-3989250Y1143498D01*
G01X-3989250Y1015500D01*
G01X-3994252Y1010498D01*
G01X-4109250Y1010498D01*
G01X-4114251Y1015500D01*
G37*
G36*
G01X-4329252Y-1461000D02*
G01X-4329252Y-1333002D01*
G01X-4324251Y-1328001D01*
G01X-4209250Y-1328001D01*
G01X-4204251Y-1333002D01*
G01X-4203748Y-1374005D01*
G01X-4248749Y-1374005D01*
G01X-4248749Y-1419004D01*
G01X-4204749Y-1419004D01*
G01X-4204251Y-1461000D01*
G01X-4209250Y-1466002D01*
G01X-4324251Y-1466002D01*
G01X-4329252Y-1461000D01*
G37*
G36*
G01X-4114251Y-1461000D02*
G01X-4114249Y-1419004D01*
G01X-4069751Y-1419004D01*
G01X-4069751Y-1374005D01*
G01X-4113748Y-1374005D01*
G01X-4114251Y-1333002D01*
G01X-4109250Y-1328001D01*
G01X-3994252Y-1328001D01*
G01X-3989250Y-1333002D01*
G01X-3989250Y-1461000D01*
G01X-3994252Y-1466002D01*
G01X-4109250Y-1466002D01*
G01X-4114251Y-1461000D01*
G37*
G36*
G01X-4329252Y-1207000D02*
G01X-4329252Y-1079002D01*
G01X-4324251Y-1074001D01*
G01X-4209250Y-1074001D01*
G01X-4204251Y-1079002D01*
G01X-4203748Y-1120005D01*
G01X-4248749Y-1120005D01*
G01X-4248749Y-1165004D01*
G01X-4204749Y-1165004D01*
G01X-4204251Y-1207000D01*
G01X-4209250Y-1212002D01*
G01X-4324251Y-1212002D01*
G01X-4329252Y-1207000D01*
G37*
G36*
G01X-4114251Y-1207000D02*
G01X-4114249Y-1165004D01*
G01X-4069751Y-1165004D01*
G01X-4069751Y-1120005D01*
G01X-4113748Y-1120005D01*
G01X-4114251Y-1079002D01*
G01X-4109250Y-1074001D01*
G01X-3994252Y-1074001D01*
G01X-3989250Y-1079002D01*
G01X-3989250Y-1207000D01*
G01X-3994252Y-1212002D01*
G01X-4109250Y-1212002D01*
G01X-4114251Y-1207000D01*
G37*
G36*
G01X-4329252Y-953000D02*
G01X-4329252Y-825002D01*
G01X-4324251Y-820001D01*
G01X-4209250Y-820001D01*
G01X-4204251Y-825002D01*
G01X-4203748Y-866005D01*
G01X-4248749Y-866005D01*
G01X-4248749Y-911004D01*
G01X-4204749Y-911004D01*
G01X-4204251Y-953000D01*
G01X-4209250Y-958002D01*
G01X-4324251Y-958002D01*
G01X-4329252Y-953000D01*
G37*
G36*
G01X-4114251Y-953000D02*
G01X-4114249Y-911004D01*
G01X-4069751Y-911004D01*
G01X-4069751Y-866005D01*
G01X-4113748Y-866005D01*
G01X-4114251Y-825002D01*
G01X-4109250Y-820001D01*
G01X-3994252Y-820001D01*
G01X-3989250Y-825002D01*
G01X-3989250Y-953000D01*
G01X-3994252Y-958002D01*
G01X-4109250Y-958002D01*
G01X-4114251Y-953000D01*
G37*
G36*
G01X-4329252Y475750D02*
G01X-4329252Y603748D01*
G01X-4324251Y608749D01*
G01X-4209250Y608749D01*
G01X-4204251Y603748D01*
G01X-4203748Y562745D01*
G01X-4248749Y562745D01*
G01X-4248749Y517746D01*
G01X-4204749Y517746D01*
G01X-4204251Y475750D01*
G01X-4209250Y470748D01*
G01X-4324251Y470748D01*
G01X-4329252Y475750D01*
G37*
G36*
G01X-4114251Y475750D02*
G01X-4114249Y517746D01*
G01X-4069751Y517746D01*
G01X-4069751Y562745D01*
G01X-4113748Y562745D01*
G01X-4114251Y603748D01*
G01X-4109250Y608749D01*
G01X-3994252Y608749D01*
G01X-3989250Y603748D01*
G01X-3989250Y475750D01*
G01X-3994252Y470748D01*
G01X-4109250Y470748D01*
G01X-4114251Y475750D01*
G37*
G36*
G01X-1229000Y3557997D02*
G01X-1101002Y3557997D01*
G01X-1096001Y3552996D01*
G01X-1096001Y3437995D01*
G01X-1101002Y3432996D01*
G01X-1142005Y3432494D01*
G01X-1142005Y3477495D01*
G01X-1187004Y3477495D01*
G01X-1187004Y3433494D01*
G01X-1229000Y3432996D01*
G01X-1234002Y3437995D01*
G01X-1234002Y3552996D01*
G01X-1229000Y3557997D01*
G37*
G36*
G01X-1101000Y3217002D02*
G01X-1228998Y3217002D01*
G01X-1233999Y3222004D01*
G01X-1233999Y3337005D01*
G01X-1228998Y3342003D01*
G01X-1187995Y3342506D01*
G01X-1187995Y3297505D01*
G01X-1142996Y3297505D01*
G01X-1142996Y3341506D01*
G01X-1101000Y3342003D01*
G01X-1095998Y3337005D01*
G01X-1095998Y3222004D01*
G01X-1101000Y3217002D01*
G37*
G36*
G01X-4329252Y-1715000D02*
G01X-4329252Y-1587002D01*
G01X-4324251Y-1582001D01*
G01X-4209250Y-1582001D01*
G01X-4204251Y-1587002D01*
G01X-4203748Y-1628005D01*
G01X-4248749Y-1628005D01*
G01X-4248749Y-1673004D01*
G01X-4204749Y-1673004D01*
G01X-4204251Y-1715000D01*
G01X-4209250Y-1720002D01*
G01X-4324251Y-1720002D01*
G01X-4329252Y-1715000D01*
G37*
G36*
G01X-4114251Y-1715000D02*
G01X-4114249Y-1673004D01*
G01X-4069751Y-1673004D01*
G01X-4069751Y-1628005D01*
G01X-4113748Y-1628005D01*
G01X-4114251Y-1587002D01*
G01X-4109250Y-1582001D01*
G01X-3994252Y-1582001D01*
G01X-3989250Y-1587002D01*
G01X-3989250Y-1715000D01*
G01X-3994252Y-1720002D01*
G01X-4109250Y-1720002D01*
G01X-4114251Y-1715000D01*
G37*
G36*
G01X3352251Y3548502D02*
G01X3352251Y3468502D01*
G01X3357253Y3463501D01*
G01X3380049Y3463501D01*
G01X3380049Y3500501D01*
G01X3413049Y3500501D01*
G01X3413049Y3463501D01*
G01X3437252Y3463501D01*
G01X3442251Y3468502D01*
G01X3442251Y3548502D01*
G01X3437252Y3553501D01*
G01X3357253Y3553501D01*
G01X3352251Y3548502D01*
G37*
G36*
G01X3442249Y3309498D02*
G01X3442249Y3389498D01*
G01X3437247Y3394499D01*
G01X3414451Y3394499D01*
G01X3414451Y3357499D01*
G01X3381451Y3357499D01*
G01X3381451Y3394499D01*
G01X3357248Y3394499D01*
G01X3352249Y3389498D01*
G01X3352249Y3309498D01*
G01X3357248Y3304499D01*
G01X3437247Y3304499D01*
G01X3442249Y3309498D01*
G37*
G36*
G01X3225251Y3548502D02*
G01X3225251Y3468502D01*
G01X3230253Y3463501D01*
G01X3253049Y3463501D01*
G01X3253049Y3500501D01*
G01X3286049Y3500501D01*
G01X3286049Y3463501D01*
G01X3310252Y3463501D01*
G01X3315251Y3468502D01*
G01X3315251Y3548502D01*
G01X3310252Y3553501D01*
G01X3230253Y3553501D01*
G01X3225251Y3548502D01*
G37*
G36*
G01X3315249Y3309498D02*
G01X3315249Y3389498D01*
G01X3310247Y3394499D01*
G01X3287451Y3394499D01*
G01X3287451Y3357499D01*
G01X3254451Y3357499D01*
G01X3254451Y3394499D01*
G01X3230248Y3394499D01*
G01X3225249Y3389498D01*
G01X3225249Y3309498D01*
G01X3230248Y3304499D01*
G01X3310247Y3304499D01*
G01X3315249Y3309498D01*
G37*
G36*
G01X3479251Y3548502D02*
G01X3479251Y3468502D01*
G01X3484253Y3463501D01*
G01X3507049Y3463501D01*
G01X3507049Y3500501D01*
G01X3540049Y3500501D01*
G01X3540049Y3463501D01*
G01X3564252Y3463501D01*
G01X3569251Y3468502D01*
G01X3569251Y3548502D01*
G01X3564252Y3553501D01*
G01X3484253Y3553501D01*
G01X3479251Y3548502D01*
G37*
G36*
G01X3569249Y3309498D02*
G01X3569249Y3389498D01*
G01X3564247Y3394499D01*
G01X3541451Y3394499D01*
G01X3541451Y3357499D01*
G01X3508451Y3357499D01*
G01X3508451Y3394499D01*
G01X3484248Y3394499D01*
G01X3479249Y3389498D01*
G01X3479249Y3309498D01*
G01X3484248Y3304499D01*
G01X3564247Y3304499D01*
G01X3569249Y3309498D01*
G37*
G36*
G01X3098251Y3548502D02*
G01X3098251Y3468502D01*
G01X3103253Y3463501D01*
G01X3126049Y3463501D01*
G01X3126049Y3500501D01*
G01X3159049Y3500501D01*
G01X3159049Y3463501D01*
G01X3183252Y3463501D01*
G01X3188251Y3468502D01*
G01X3188251Y3548502D01*
G01X3183252Y3553501D01*
G01X3103253Y3553501D01*
G01X3098251Y3548502D01*
G37*
G36*
G01X3188249Y3309498D02*
G01X3188249Y3389498D01*
G01X3183247Y3394499D01*
G01X3160451Y3394499D01*
G01X3160451Y3357499D01*
G01X3127451Y3357499D01*
G01X3127451Y3394499D01*
G01X3103248Y3394499D01*
G01X3098249Y3389498D01*
G01X3098249Y3309498D01*
G01X3103248Y3304499D01*
G01X3183247Y3304499D01*
G01X3188249Y3309498D01*
G37*
G36*
G01X2971251Y3548502D02*
G01X2971251Y3468502D01*
G01X2976253Y3463501D01*
G01X2999049Y3463501D01*
G01X2999049Y3500501D01*
G01X3032049Y3500501D01*
G01X3032049Y3463501D01*
G01X3056252Y3463501D01*
G01X3061251Y3468502D01*
G01X3061251Y3548502D01*
G01X3056252Y3553501D01*
G01X2976253Y3553501D01*
G01X2971251Y3548502D01*
G37*
G36*
G01X3061249Y3309498D02*
G01X3061249Y3389498D01*
G01X3056247Y3394499D01*
G01X3033451Y3394499D01*
G01X3033451Y3357499D01*
G01X3000451Y3357499D01*
G01X3000451Y3394499D01*
G01X2976248Y3394499D01*
G01X2971249Y3389498D01*
G01X2971249Y3309498D01*
G01X2976248Y3304499D01*
G01X3056247Y3304499D01*
G01X3061249Y3309498D01*
G37*
G36*
G01X2717251Y3548502D02*
G01X2717251Y3468502D01*
G01X2722253Y3463501D01*
G01X2745049Y3463501D01*
G01X2745049Y3500501D01*
G01X2778049Y3500501D01*
G01X2778049Y3463501D01*
G01X2802252Y3463501D01*
G01X2807251Y3468502D01*
G01X2807251Y3548502D01*
G01X2802252Y3553501D01*
G01X2722253Y3553501D01*
G01X2717251Y3548502D01*
G37*
G36*
G01X2807249Y3309498D02*
G01X2807249Y3389498D01*
G01X2802247Y3394499D01*
G01X2779451Y3394499D01*
G01X2779451Y3357499D01*
G01X2746451Y3357499D01*
G01X2746451Y3394499D01*
G01X2722248Y3394499D01*
G01X2717249Y3389498D01*
G01X2717249Y3309498D01*
G01X2722248Y3304499D01*
G01X2802247Y3304499D01*
G01X2807249Y3309498D01*
G37*
G36*
G01X2590251Y3548502D02*
G01X2590251Y3468502D01*
G01X2595253Y3463501D01*
G01X2618049Y3463501D01*
G01X2618049Y3500501D01*
G01X2651049Y3500501D01*
G01X2651049Y3463501D01*
G01X2675252Y3463501D01*
G01X2680251Y3468502D01*
G01X2680251Y3548502D01*
G01X2675252Y3553501D01*
G01X2595253Y3553501D01*
G01X2590251Y3548502D01*
G37*
G36*
G01X2680249Y3309498D02*
G01X2680249Y3389498D01*
G01X2675247Y3394499D01*
G01X2652451Y3394499D01*
G01X2652451Y3357499D01*
G01X2619451Y3357499D01*
G01X2619451Y3394499D01*
G01X2595248Y3394499D01*
G01X2590249Y3389498D01*
G01X2590249Y3309498D01*
G01X2595248Y3304499D01*
G01X2675247Y3304499D01*
G01X2680249Y3309498D01*
G37*
G36*
G01X2844251Y3548502D02*
G01X2844251Y3468502D01*
G01X2849253Y3463501D01*
G01X2872049Y3463501D01*
G01X2872049Y3500501D01*
G01X2905049Y3500501D01*
G01X2905049Y3463501D01*
G01X2929252Y3463501D01*
G01X2934251Y3468502D01*
G01X2934251Y3548502D01*
G01X2929252Y3553501D01*
G01X2849253Y3553501D01*
G01X2844251Y3548502D01*
G37*
G36*
G01X2934249Y3309498D02*
G01X2934249Y3389498D01*
G01X2929247Y3394499D01*
G01X2906451Y3394499D01*
G01X2906451Y3357499D01*
G01X2873451Y3357499D01*
G01X2873451Y3394499D01*
G01X2849248Y3394499D01*
G01X2844249Y3389498D01*
G01X2844249Y3309498D01*
G01X2849248Y3304499D01*
G01X2929247Y3304499D01*
G01X2934249Y3309498D01*
G37*
G36*
G01X2463251Y3548502D02*
G01X2463251Y3468502D01*
G01X2468253Y3463501D01*
G01X2491049Y3463501D01*
G01X2491049Y3500501D01*
G01X2524049Y3500501D01*
G01X2524049Y3463501D01*
G01X2548252Y3463501D01*
G01X2553251Y3468502D01*
G01X2553251Y3548502D01*
G01X2548252Y3553501D01*
G01X2468253Y3553501D01*
G01X2463251Y3548502D01*
G37*
G36*
G01X2553249Y3309498D02*
G01X2553249Y3389498D01*
G01X2548247Y3394499D01*
G01X2525451Y3394499D01*
G01X2525451Y3357499D01*
G01X2492451Y3357499D01*
G01X2492451Y3394499D01*
G01X2468248Y3394499D01*
G01X2463249Y3389498D01*
G01X2463249Y3309498D01*
G01X2468248Y3304499D01*
G01X2548247Y3304499D01*
G01X2553249Y3309498D01*
G37*
G36*
G01X2336251Y3548502D02*
G01X2336251Y3468502D01*
G01X2341253Y3463501D01*
G01X2364049Y3463501D01*
G01X2364049Y3500501D01*
G01X2397049Y3500501D01*
G01X2397049Y3463501D01*
G01X2421252Y3463501D01*
G01X2426251Y3468502D01*
G01X2426251Y3548502D01*
G01X2421252Y3553501D01*
G01X2341253Y3553501D01*
G01X2336251Y3548502D01*
G37*
G36*
G01X2426249Y3309498D02*
G01X2426249Y3389498D01*
G01X2421247Y3394499D01*
G01X2398451Y3394499D01*
G01X2398451Y3357499D01*
G01X2365451Y3357499D01*
G01X2365451Y3394499D01*
G01X2341248Y3394499D01*
G01X2336249Y3389498D01*
G01X2336249Y3309498D01*
G01X2341248Y3304499D01*
G01X2421247Y3304499D01*
G01X2426249Y3309498D01*
G37*
G36*
G01X2082251Y3548502D02*
G01X2082251Y3468502D01*
G01X2087253Y3463501D01*
G01X2110049Y3463501D01*
G01X2110049Y3500501D01*
G01X2143049Y3500501D01*
G01X2143049Y3463501D01*
G01X2167252Y3463501D01*
G01X2172251Y3468502D01*
G01X2172251Y3548502D01*
G01X2167252Y3553501D01*
G01X2087253Y3553501D01*
G01X2082251Y3548502D01*
G37*
G36*
G01X2172249Y3309498D02*
G01X2172249Y3389498D01*
G01X2167247Y3394499D01*
G01X2144451Y3394499D01*
G01X2144451Y3357499D01*
G01X2111451Y3357499D01*
G01X2111451Y3394499D01*
G01X2087248Y3394499D01*
G01X2082249Y3389498D01*
G01X2082249Y3309498D01*
G01X2087248Y3304499D01*
G01X2167247Y3304499D01*
G01X2172249Y3309498D01*
G37*
G36*
G01X1955251Y3548502D02*
G01X1955251Y3468502D01*
G01X1960253Y3463501D01*
G01X1983049Y3463501D01*
G01X1983049Y3500501D01*
G01X2016049Y3500501D01*
G01X2016049Y3463501D01*
G01X2040252Y3463501D01*
G01X2045251Y3468502D01*
G01X2045251Y3548502D01*
G01X2040252Y3553501D01*
G01X1960253Y3553501D01*
G01X1955251Y3548502D01*
G37*
G36*
G01X2045249Y3309498D02*
G01X2045249Y3389498D01*
G01X2040247Y3394499D01*
G01X2017451Y3394499D01*
G01X2017451Y3357499D01*
G01X1984451Y3357499D01*
G01X1984451Y3394499D01*
G01X1960248Y3394499D01*
G01X1955249Y3389498D01*
G01X1955249Y3309498D01*
G01X1960248Y3304499D01*
G01X2040247Y3304499D01*
G01X2045249Y3309498D01*
G37*
G36*
G01X2209251Y3548502D02*
G01X2209251Y3468502D01*
G01X2214253Y3463501D01*
G01X2237049Y3463501D01*
G01X2237049Y3500501D01*
G01X2270049Y3500501D01*
G01X2270049Y3463501D01*
G01X2294252Y3463501D01*
G01X2299251Y3468502D01*
G01X2299251Y3548502D01*
G01X2294252Y3553501D01*
G01X2214253Y3553501D01*
G01X2209251Y3548502D01*
G37*
G36*
G01X2299249Y3309498D02*
G01X2299249Y3389498D01*
G01X2294247Y3394499D01*
G01X2271451Y3394499D01*
G01X2271451Y3357499D01*
G01X2238451Y3357499D01*
G01X2238451Y3394499D01*
G01X2214248Y3394499D01*
G01X2209249Y3389498D01*
G01X2209249Y3309498D01*
G01X2214248Y3304499D01*
G01X2294247Y3304499D01*
G01X2299249Y3309498D01*
G37*
G36*
G01X1828251Y3548502D02*
G01X1828251Y3468502D01*
G01X1833253Y3463501D01*
G01X1856049Y3463501D01*
G01X1856049Y3500501D01*
G01X1889049Y3500501D01*
G01X1889049Y3463501D01*
G01X1913252Y3463501D01*
G01X1918251Y3468502D01*
G01X1918251Y3548502D01*
G01X1913252Y3553501D01*
G01X1833253Y3553501D01*
G01X1828251Y3548502D01*
G37*
G36*
G01X1918249Y3309498D02*
G01X1918249Y3389498D01*
G01X1913247Y3394499D01*
G01X1890451Y3394499D01*
G01X1890451Y3357499D01*
G01X1857451Y3357499D01*
G01X1857451Y3394499D01*
G01X1833248Y3394499D01*
G01X1828249Y3389498D01*
G01X1828249Y3309498D01*
G01X1833248Y3304499D01*
G01X1913247Y3304499D01*
G01X1918249Y3309498D01*
G37*
G36*
G01X1701251Y3548502D02*
G01X1701251Y3468502D01*
G01X1706253Y3463501D01*
G01X1729049Y3463501D01*
G01X1729049Y3500501D01*
G01X1762049Y3500501D01*
G01X1762049Y3463501D01*
G01X1786252Y3463501D01*
G01X1791251Y3468502D01*
G01X1791251Y3548502D01*
G01X1786252Y3553501D01*
G01X1706253Y3553501D01*
G01X1701251Y3548502D01*
G37*
G36*
G01X1791249Y3309498D02*
G01X1791249Y3389498D01*
G01X1786247Y3394499D01*
G01X1763451Y3394499D01*
G01X1763451Y3357499D01*
G01X1730451Y3357499D01*
G01X1730451Y3394499D01*
G01X1706248Y3394499D01*
G01X1701249Y3389498D01*
G01X1701249Y3309498D01*
G01X1706248Y3304499D01*
G01X1786247Y3304499D01*
G01X1791249Y3309498D01*
G37*
G36*
G01X3765001Y3548502D02*
G01X3765001Y3468502D01*
G01X3770003Y3463501D01*
G01X3792799Y3463501D01*
G01X3792799Y3500501D01*
G01X3825799Y3500501D01*
G01X3825799Y3463501D01*
G01X3850002Y3463501D01*
G01X3855001Y3468502D01*
G01X3855001Y3548502D01*
G01X3850002Y3553501D01*
G01X3770003Y3553501D01*
G01X3765001Y3548502D01*
G37*
G36*
G01X3854999Y3309498D02*
G01X3854999Y3389498D01*
G01X3849997Y3394499D01*
G01X3827201Y3394499D01*
G01X3827201Y3357499D01*
G01X3794201Y3357499D01*
G01X3794201Y3394499D01*
G01X3769998Y3394499D01*
G01X3764999Y3389498D01*
G01X3764999Y3309498D01*
G01X3769998Y3304499D01*
G01X3849997Y3304499D01*
G01X3854999Y3309498D01*
G37*
G36*
G01X3606251Y3548502D02*
G01X3606251Y3468502D01*
G01X3611253Y3463501D01*
G01X3634049Y3463501D01*
G01X3634049Y3500501D01*
G01X3667049Y3500501D01*
G01X3667049Y3463501D01*
G01X3691252Y3463501D01*
G01X3696251Y3468502D01*
G01X3696251Y3548502D01*
G01X3691252Y3553501D01*
G01X3611253Y3553501D01*
G01X3606251Y3548502D01*
G37*
G36*
G01X3696249Y3309498D02*
G01X3696249Y3389498D01*
G01X3691247Y3394499D01*
G01X3668451Y3394499D01*
G01X3668451Y3357499D01*
G01X3635451Y3357499D01*
G01X3635451Y3394499D01*
G01X3611248Y3394499D01*
G01X3606249Y3389498D01*
G01X3606249Y3309498D01*
G01X3611248Y3304499D01*
G01X3691247Y3304499D01*
G01X3696249Y3309498D01*
G37*
G36*
G01X1070497Y-2436000D02*
G01X1070497Y-2563998D01*
G01X1065496Y-2568999D01*
G01X950495Y-2568999D01*
G01X945496Y-2563998D01*
G01X944994Y-2522995D01*
G01X989995Y-2522995D01*
G01X989995Y-2477996D01*
G01X945994Y-2477996D01*
G01X945496Y-2436000D01*
G01X950495Y-2430998D01*
G01X1065496Y-2430998D01*
G01X1070497Y-2436000D01*
G37*
G36*
G01X729502Y-2564000D02*
G01X729502Y-2436002D01*
G01X734504Y-2431001D01*
G01X849505Y-2431001D01*
G01X854503Y-2436002D01*
G01X855006Y-2477005D01*
G01X810005Y-2477005D01*
G01X810005Y-2522004D01*
G01X854006Y-2522004D01*
G01X854503Y-2564000D01*
G01X849505Y-2569002D01*
G01X734504Y-2569002D01*
G01X729502Y-2564000D01*
G37*
G36*
G01X718503Y-984750D02*
G01X718503Y-856752D01*
G01X723504Y-851751D01*
G01X838505Y-851751D01*
G01X843504Y-856752D01*
G01X844006Y-897755D01*
G01X799005Y-897755D01*
G01X799005Y-942754D01*
G01X843006Y-942754D01*
G01X843504Y-984750D01*
G01X838505Y-989752D01*
G01X723504Y-989752D01*
G01X718503Y-984750D01*
G37*
G36*
G01X1059498Y-856750D02*
G01X1059498Y-984748D01*
G01X1054496Y-989749D01*
G01X939495Y-989749D01*
G01X934496Y-984748D01*
G01X933994Y-943745D01*
G01X978995Y-943745D01*
G01X978995Y-898746D01*
G01X934994Y-898746D01*
G01X934496Y-856750D01*
G01X939495Y-851748D01*
G01X1054496Y-851748D01*
G01X1059498Y-856750D01*
G37*
G36*
G01X-4329252Y-2477000D02*
G01X-4329252Y-2349002D01*
G01X-4324251Y-2344001D01*
G01X-4209250Y-2344001D01*
G01X-4204251Y-2349002D01*
G01X-4203748Y-2390005D01*
G01X-4248749Y-2390005D01*
G01X-4248749Y-2435004D01*
G01X-4204749Y-2435004D01*
G01X-4204251Y-2477000D01*
G01X-4209250Y-2482002D01*
G01X-4324251Y-2482002D01*
G01X-4329252Y-2477000D01*
G37*
G36*
G01X-4114251Y-2477000D02*
G01X-4114249Y-2435004D01*
G01X-4069751Y-2435004D01*
G01X-4069751Y-2390005D01*
G01X-4113748Y-2390005D01*
G01X-4114251Y-2349002D01*
G01X-4109250Y-2344001D01*
G01X-3994252Y-2344001D01*
G01X-3989250Y-2349002D01*
G01X-3989250Y-2477000D01*
G01X-3994252Y-2482002D01*
G01X-4109250Y-2482002D01*
G01X-4114251Y-2477000D01*
G37*
G36*
G01X-4329252Y-2223000D02*
G01X-4329252Y-2095002D01*
G01X-4324251Y-2090001D01*
G01X-4209250Y-2090001D01*
G01X-4204251Y-2095002D01*
G01X-4203748Y-2136005D01*
G01X-4248749Y-2136005D01*
G01X-4248749Y-2181004D01*
G01X-4204749Y-2181004D01*
G01X-4204251Y-2223000D01*
G01X-4209250Y-2228002D01*
G01X-4324251Y-2228002D01*
G01X-4329252Y-2223000D01*
G37*
G36*
G01X-4114251Y-2223000D02*
G01X-4114249Y-2181004D01*
G01X-4069751Y-2181004D01*
G01X-4069751Y-2136005D01*
G01X-4113748Y-2136005D01*
G01X-4114251Y-2095002D01*
G01X-4109250Y-2090001D01*
G01X-3994252Y-2090001D01*
G01X-3989250Y-2095002D01*
G01X-3989250Y-2223000D01*
G01X-3994252Y-2228002D01*
G01X-4109250Y-2228002D01*
G01X-4114251Y-2223000D01*
G37*
G36*
G01X-4329252Y-1969000D02*
G01X-4329252Y-1841002D01*
G01X-4324251Y-1836001D01*
G01X-4209250Y-1836001D01*
G01X-4204251Y-1841002D01*
G01X-4203748Y-1882005D01*
G01X-4248749Y-1882005D01*
G01X-4248749Y-1927004D01*
G01X-4204749Y-1927004D01*
G01X-4204251Y-1969000D01*
G01X-4209250Y-1974002D01*
G01X-4324251Y-1974002D01*
G01X-4329252Y-1969000D01*
G37*
G36*
G01X-4114251Y-1969000D02*
G01X-4114249Y-1927004D01*
G01X-4069751Y-1927004D01*
G01X-4069751Y-1882005D01*
G01X-4113748Y-1882005D01*
G01X-4114251Y-1841002D01*
G01X-4109250Y-1836001D01*
G01X-3994252Y-1836001D01*
G01X-3989250Y-1841002D01*
G01X-3989250Y-1969000D01*
G01X-3994252Y-1974002D01*
G01X-4109250Y-1974002D01*
G01X-4114251Y-1969000D01*
G37*
G36*
G01X-4329252Y-2731000D02*
G01X-4329252Y-2603002D01*
G01X-4324251Y-2598001D01*
G01X-4209250Y-2598001D01*
G01X-4204251Y-2603002D01*
G01X-4203748Y-2644005D01*
G01X-4248749Y-2644005D01*
G01X-4248749Y-2689004D01*
G01X-4204749Y-2689004D01*
G01X-4204251Y-2731000D01*
G01X-4209250Y-2736002D01*
G01X-4324251Y-2736002D01*
G01X-4329252Y-2731000D01*
G37*
G36*
G01X-4114251Y-2731000D02*
G01X-4114249Y-2689004D01*
G01X-4069751Y-2689004D01*
G01X-4069751Y-2644005D01*
G01X-4113748Y-2644005D01*
G01X-4114251Y-2603002D01*
G01X-4109250Y-2598001D01*
G01X-3994252Y-2598001D01*
G01X-3989250Y-2603002D01*
G01X-3989250Y-2731000D01*
G01X-3994252Y-2736002D01*
G01X-4109250Y-2736002D01*
G01X-4114251Y-2731000D01*
G37*

G04 Pad Start*
G54D10*
G01X-444500Y-4655058D03*
G01X-317500Y-4655058D03*
G01X-190500Y-4655058D03*
G01X-63500Y-4655058D03*
G01X63500Y-4655058D03*
G01X190500Y-4655058D03*
G01X317500Y-4655058D03*
G01X444500Y-4655058D03*
G01X-444500Y-4107942D03*
G01X-317500Y-4107942D03*
G01X-190500Y-4107942D03*
G01X-63500Y-4107942D03*
G01X63500Y-4107942D03*
G01X190500Y-4107942D03*
G01X317500Y-4107942D03*
G01X444500Y-4107942D03*
G54D11*
G01X-392493Y3848209D03*
G01X-457492Y3848209D03*
G01X-522491Y3848209D03*
G01X-587489Y3848209D03*
G01X-652513Y3848209D03*
G01X-717512Y3848209D03*
G01X-782510Y3848209D03*
G01X-847509Y3848209D03*
G01X-912508Y3848209D03*
G01X-977506Y3848209D03*
G01X-392493Y3151792D03*
G01X-457492Y3151792D03*
G01X-522491Y3151792D03*
G01X-587489Y3151792D03*
G01X-652513Y3151792D03*
G01X-717512Y3151792D03*
G01X-782510Y3151792D03*
G01X-847509Y3151792D03*
G01X-912508Y3151792D03*
G01X-977506Y3151792D03*
G54D12*
G01X-4677029Y-889000D03*
G01X-4466971Y-889000D03*
G01X-4677029Y-1143000D03*
G01X-4466971Y-1143000D03*
G01X-4677029Y-1397000D03*
G01X-4466971Y-1397000D03*
G01X-4677029Y1079500D03*
G01X-4466971Y1079500D03*
G01X-4677029Y539750D03*
G01X-4466971Y539750D03*
G54D11*
G01X-1352494Y3848209D03*
G01X-1417492Y3848209D03*
G01X-1482491Y3848209D03*
G01X-1547489Y3848209D03*
G01X-1612513Y3848209D03*
G01X-1677512Y3848209D03*
G01X-1742511Y3848209D03*
G01X-1807509Y3848209D03*
G01X-1872508Y3848209D03*
G01X-1937506Y3848209D03*
G01X-1352494Y3151792D03*
G01X-1417492Y3151792D03*
G01X-1482491Y3151792D03*
G01X-1547489Y3151792D03*
G01X-1612513Y3151792D03*
G01X-1677512Y3151792D03*
G01X-1742511Y3151792D03*
G01X-1807509Y3151792D03*
G01X-1872508Y3151792D03*
G01X-1937506Y3151792D03*
G54D12*
G01X-4677029Y-1651000D03*
G01X-4466971Y-1651000D03*
G54D13*
G01X1841500Y-1159510D03*
G01X1714500Y-1159510D03*
G01X1587500Y-1159510D03*
G01X1460500Y-1159510D03*
G01X1333500Y-1159510D03*
G01X1206500Y-1159510D03*
G01X1079500Y-1159510D03*
G01X952500Y-1159510D03*
G01X825500Y-1159510D03*
G01X698500Y-1159510D03*
G01X571500Y-1159510D03*
G01X444500Y-1159510D03*
G01X317500Y-1159510D03*
G01X190500Y-1159510D03*
G01X63500Y-1159510D03*
G01X-63500Y-1159510D03*
G01X-63500Y-2269490D03*
G01X63500Y-2269490D03*
G01X190500Y-2269490D03*
G01X317500Y-2269490D03*
G01X444500Y-2269490D03*
G01X571500Y-2269490D03*
G01X698500Y-2269490D03*
G01X825500Y-2269490D03*
G01X952500Y-2269490D03*
G01X1079500Y-2269490D03*
G01X1206500Y-2269490D03*
G01X1333500Y-2269490D03*
G01X1460500Y-2269490D03*
G01X1587500Y-2269490D03*
G01X1714500Y-2269490D03*
G01X1841500Y-2269490D03*
G54D12*
G01X-4677029Y-2413000D03*
G01X-4466971Y-2413000D03*
G01X-4677029Y-2667000D03*
G01X-4466971Y-2667000D03*
G01X-4677029Y-1905000D03*
G01X-4466971Y-1905000D03*
G01X-4677029Y-2159000D03*
G01X-4466971Y-2159000D03*
G04 Pad End*

M02*

