G04 Layer: BottomSolderMaskLayer*
G04 EasyEDA Pro v2.2.47.7, 2026-04-28 21:33:04*
G04 Gerber Generator version 0.3*
G04 Scale: 100 percent, Rotated: No, Reflected: No*
G04 Dimensions in millimeters*
G04 Leading zeros omitted, absolute positions, 4 integers and 5 decimals*
G04 Generated by one-click*
G04 Object Configs: Pad,Via,Track,Text,Image,Dimension,BoardOutline,BoardCutout,CopperFilled,SolidRegion,FPCStiffener,Line,PlaneZone,ComponentProperty,ComponentSilkscreen,TearDrop*
G04 Layer Configs: 1,2,3,4,5,6,7,8,9,10,11,13,14,56*
G04 Copper Areas: 0*
%FSLAX45Y45*%
%MOMM*%
%AMRoundRect*1,1,$1,$2,$3*1,1,$1,$4,$5*1,1,$1,0-$2,0-$3*1,1,$1,0-$4,0-$5*20,1,$1,$2,$3,$4,$5,0*20,1,$1,$4,$5,0-$2,0-$3,0*20,1,$1,0-$2,0-$3,0-$4,0-$5,0*20,1,$1,0-$4,0-$5,$2,$3,0*4,1,4,$2,$3,$4,$5,0-$2,0-$3,0-$4,0-$5,$2,$3,0*%
%ADD10O,3.1016X1.6016*%
%ADD11C,5.10159*%
%ADD12C,1.9016*%
%ADD13RoundRect,0.09645X-0.90257X0.90257X0.90257X0.90257*%
%ADD14O,1.70002X3.70002*%
%ADD15O,3.7033X1.70002*%
%ADD16O,3.70002X1.70002*%
%ADD17C,1.7016*%
%ADD18O,2.90159X1.8016*%
%ADD19RoundRect,0.09562X-0.76499X-0.76499X-0.76499X0.76499*%
%ADD20C,1.6256*%
%ADD21O,2.3X1.5*%
%ADD22C,1.6*%
%ADD23C,4.4032*%
%ADD24C,3.20159*%
%ADD25C,1.6016*%
%ADD26C,1.8016*%
%ADD27O,3.80159X1.6016*%
G75*


G04 Pad Start*
G54D10*
G01X4817500Y-1530000D03*
G01X4817500Y-2790000D03*
G54D11*
G01X-1250003Y-4049987D03*
G54D12*
G01X-2915506Y-4191999D03*
G01X-2638494Y-4191999D03*
G01X-2361507Y-4191999D03*
G01X-2084494Y-4191999D03*
G54D13*
G01X-3054012Y-3908001D03*
G54D12*
G01X-2777000Y-3908001D03*
G01X-2223000Y-3908001D03*
G01X-1946013Y-3908001D03*
G54D11*
G01X-3749998Y-4049987D03*
G54D12*
G01X-2500013Y-3908001D03*
G54D11*
G01X3749998Y-4049987D03*
G54D12*
G01X2084494Y-4191999D03*
G01X2361507Y-4191999D03*
G01X2638494Y-4191999D03*
G01X2915506Y-4191999D03*
G54D13*
G01X1945988Y-3908001D03*
G54D12*
G01X2223000Y-3908001D03*
G01X2777000Y-3908001D03*
G01X3053987Y-3908001D03*
G54D11*
G01X1250003Y-4049987D03*
G54D12*
G01X2499987Y-3908001D03*
G54D14*
G01X-4819688Y4140200D03*
G54D16*
G01X-4349712Y4440199D03*
G01X-4349712Y3840201D03*
G54D17*
G01X-3707000Y-684900D03*
G01X-3707000Y242200D03*
G01X-2183000Y-684900D03*
G01X-2183000Y242200D03*
G01X-3712000Y880100D03*
G01X-3712000Y1807200D03*
G01X-2188000Y880100D03*
G01X-2188000Y1807200D03*
G54D18*
G01X899000Y4582744D03*
G01X699000Y3622751D03*
G01X899000Y4032758D03*
G01X699000Y4212742D03*
G01X699000Y4822749D03*
G54D19*
G01X-3615000Y3300000D03*
G54D20*
G01X-3361000Y3300000D03*
G01X-3107000Y3300000D03*
G01X-2853000Y3300000D03*
G01X-2599000Y3300000D03*
G01X-2345000Y3300000D03*
G54D21*
G01X-4775210Y2193008D03*
G01X-4775210Y1362987D03*
G54D22*
G01X-4775210Y1577998D03*
G01X-4775210Y1777997D03*
G01X-4775210Y1977997D03*
G54D12*
G01X4347007Y1453007D03*
G01X4347007Y2102993D03*
G01X4796993Y1453007D03*
G01X4796993Y2102993D03*
G01X4347007Y564007D03*
G01X4347007Y1213993D03*
G01X4796993Y564007D03*
G01X4796993Y1213993D03*
G01X4347007Y-324993D03*
G01X4347007Y324993D03*
G01X4796993Y-324993D03*
G01X4796993Y324993D03*
G01X4347007Y-1213993D03*
G01X4347007Y-564007D03*
G01X4796993Y-1213993D03*
G01X4796993Y-564007D03*
G54D23*
G01X-4600000Y2750000D03*
G01X-4600000Y-3350000D03*
G01X4600000Y2750000D03*
G01X4593650Y-3350000D03*
G54D20*
G01X3430000Y-1525000D03*
G01X3430000Y-1779000D03*
G01X3430000Y-2033000D03*
G01X3430000Y-2287000D03*
G01X3430000Y-2541000D03*
G01X3430000Y-2795000D03*
G54D19*
G01X4064000Y2794000D03*
G54D20*
G01X4064000Y2540000D03*
G01X3810000Y2794000D03*
G01X3810000Y2540000D03*
G01X3556000Y2794000D03*
G01X3556000Y2540000D03*
G01X3302000Y2794000D03*
G01X3302000Y2540000D03*
G01X3048000Y2794000D03*
G01X3048000Y2540000D03*
G01X2794000Y2794000D03*
G01X2794000Y2540000D03*
G01X2540000Y2794000D03*
G01X2540000Y2540000D03*
G01X2286000Y2794000D03*
G01X2286000Y2540000D03*
G01X2032000Y2794000D03*
G01X2032000Y2540000D03*
G01X1778000Y2794000D03*
G01X1778000Y2540000D03*
G01X1524000Y2794000D03*
G01X1524000Y2540000D03*
G01X1270000Y2794000D03*
G01X1270000Y2540000D03*
G01X1016000Y2794000D03*
G01X1016000Y2540000D03*
G01X762000Y2794000D03*
G01X762000Y2540000D03*
G01X508000Y2794000D03*
G01X508000Y2540000D03*
G01X254000Y2794000D03*
G01X254000Y2540000D03*
G01X0Y2794000D03*
G01X0Y2540000D03*
G01X-254000Y2794000D03*
G01X-254000Y2540000D03*
G01X-508000Y2794000D03*
G01X-508000Y2540000D03*
G01X-762000Y2794000D03*
G01X-762000Y2540000D03*
G01X-1016000Y2794000D03*
G01X-1016000Y2540000D03*
G01X-1270000Y2794000D03*
G01X-1270000Y2540000D03*
G01X-1524000Y2794000D03*
G01X-1524000Y2540000D03*
G01X-1778000Y2794000D03*
G01X-1778000Y2540000D03*
G01X-2032000Y2794000D03*
G01X-2032000Y2540000D03*
G01X-2286000Y2794000D03*
G01X-2286000Y2540000D03*
G01X-2540000Y2794000D03*
G01X-2540000Y2540000D03*
G01X-2794000Y2794000D03*
G01X-2794000Y2540000D03*
G01X-3048000Y2794000D03*
G01X-3048000Y2540000D03*
G01X-3302000Y2794000D03*
G01X-3302000Y2540000D03*
G01X-3556000Y2794000D03*
G01X-3556000Y2540000D03*
G01X-3810000Y2794000D03*
G01X-3810000Y2540000D03*
G01X4064000Y-3302000D03*
G01X4064000Y-3556000D03*
G01X3810000Y-3302000D03*
G01X3810000Y-3556000D03*
G01X3556000Y-3302000D03*
G01X3556000Y-3556000D03*
G01X3302000Y-3302000D03*
G01X3302000Y-3556000D03*
G01X3048000Y-3302000D03*
G01X3048000Y-3556000D03*
G01X2794000Y-3302000D03*
G01X2794000Y-3556000D03*
G01X2540000Y-3302000D03*
G01X2540000Y-3556000D03*
G01X2286000Y-3302000D03*
G01X2286000Y-3556000D03*
G01X2032000Y-3302000D03*
G01X2032000Y-3556000D03*
G01X1778000Y-3302000D03*
G01X1778000Y-3556000D03*
G01X1524000Y-3302000D03*
G01X1524000Y-3556000D03*
G01X1270000Y-3302000D03*
G01X1270000Y-3556000D03*
G01X1016000Y-3302000D03*
G01X1016000Y-3556000D03*
G01X762000Y-3302000D03*
G01X762000Y-3556000D03*
G01X508000Y-3302000D03*
G01X508000Y-3556000D03*
G01X254000Y-3302000D03*
G01X254000Y-3556000D03*
G01X0Y-3302000D03*
G01X0Y-3556000D03*
G01X-254000Y-3302000D03*
G01X-254000Y-3556000D03*
G01X-508000Y-3302000D03*
G01X-508000Y-3556000D03*
G01X-762000Y-3302000D03*
G01X-762000Y-3556000D03*
G01X-1016000Y-3302000D03*
G01X-1016000Y-3556000D03*
G01X-1270000Y-3302000D03*
G01X-1270000Y-3556000D03*
G01X-1524000Y-3302000D03*
G01X-1524000Y-3556000D03*
G01X-1778000Y-3302000D03*
G01X-1778000Y-3556000D03*
G01X-2032000Y-3302000D03*
G01X-2032000Y-3556000D03*
G01X-2286000Y-3302000D03*
G01X-2286000Y-3556000D03*
G01X-2540000Y-3302000D03*
G01X-2540000Y-3556000D03*
G01X-2794000Y-3302000D03*
G01X-2794000Y-3556000D03*
G01X-3048000Y-3302000D03*
G01X-3048000Y-3556000D03*
G01X-3302000Y-3302000D03*
G01X-3302000Y-3556000D03*
G01X-3556000Y-3302000D03*
G01X-3556000Y-3556000D03*
G01X-3810000Y-3302000D03*
G01X-3810000Y-3556000D03*
G54D24*
G01X-1499999Y4465509D03*
G01X-100001Y4465509D03*
G54D25*
G01X-449983Y4194499D03*
G01X-699995Y4194491D03*
G01X-899997Y4194501D03*
G01X-1149984Y4194501D03*
G54D26*
G01X2666996Y4300000D03*
G01X2895995Y4300000D03*
G01X3124999Y4300000D03*
G01X3354000Y4300000D03*
G01X3582999Y4300000D03*
G01X2552496Y4500000D03*
G01X2781494Y4500000D03*
G01X3010496Y4500000D03*
G01X3239499Y4500000D03*
G01X3468498Y4500000D03*
G01X2666994Y4699999D03*
G01X2895995Y4699999D03*
G01X3124999Y4699999D03*
G01X3353998Y4699999D03*
G01X3582999Y4699999D03*
G54D27*
G01X4399497Y4500000D03*
G01X1900503Y4500000D03*
G04 Pad End*

M02*

